<svg width="110" height="40" viewBox="0 0 110 40" fill="none" xmlns="http://www.w3.org/2000/svg">
<g clip-path="url(#clip0_1433_14564)">
<path fill-rule="evenodd" clip-rule="evenodd" d="M0.5 0.357911H7.83975C11.9222 0.357911 14.0569 2.40395 14.0569 4.91657C14.0569 6.65106 13.0478 7.82913 11.6486 8.45221V8.49713C13.438 9.12022 14.447 10.4983 14.447 12.2545C14.447 14.7671 12.4514 16.9682 8.13872 16.9682H0.5V0.357911ZM7.61103 6.93942C8.82635 6.93942 9.37796 6.33952 9.37796 5.67152C9.37796 5.00351 8.82785 4.38188 7.61103 4.38188H5.45545V6.93942H7.61103ZM7.6798 12.9428C8.96388 12.9428 9.58425 12.3429 9.58425 11.5647C9.58425 10.7866 8.94146 10.1867 7.70372 10.1867H5.45545V12.9442H7.6798V12.9428ZM15.5009 10.2084V0.357911H20.5012V10.1635C20.5012 12.0096 21.4415 12.9877 23.0469 12.9877C24.6524 12.9877 25.6614 12.0096 25.6614 10.1418V0.357911H30.6856V10.2084C30.6856 14.3889 27.7961 17.3913 23.0469 17.3913C18.2978 17.3913 15.4994 14.3889 15.4994 10.2084H15.5009ZM43.4173 1.15778V5.42663C42.3396 4.69342 40.5039 4.18191 39.0135 4.18191C37.6607 4.18191 36.9715 4.60503 36.9715 5.16001C36.9715 5.71499 37.7279 6.0048 39.0823 6.47139C41.3769 7.24952 44.4951 8.29427 44.4951 11.8299C44.4951 14.9874 42.0406 17.3218 37.7279 17.3218C35.5036 17.3218 33.4616 16.6987 32.1999 15.8771V11.3851C33.4392 12.3632 35.3197 13.1413 37.1315 13.1413C38.6682 13.1413 39.3797 12.5849 39.3797 11.9632C39.3797 11.1634 38.2093 10.8069 36.8101 10.3171C34.9744 9.6723 32.0624 8.51597 32.0624 5.29187C32.0624 2.37931 34.4258 0 38.6458 0C40.5039 0 42.1781 0.466589 43.4173 1.15633V1.15778ZM45.7792 0.357911H50.7795V16.9682H45.7792V0.357911ZM68.5579 16.9682H63.7863L57.6155 8.05228H57.5931V16.9682H52.8454V0.357911H57.617L63.7878 9.11877H63.8102V0.357911H68.5579V16.9682ZM70.6223 0.357911H82.4585V4.67168H75.6226V6.6728H81.7694V10.5866H75.6226V12.6544H82.4585V16.9682H70.6223V0.357911ZM95.0064 1.15778V5.42663C93.9286 4.69342 92.0929 4.18191 90.6025 4.18191C89.2497 4.18191 88.5605 4.60503 88.5605 5.16001C88.5605 5.71499 89.3169 6.0048 90.6713 6.47139C92.9659 7.24952 96.0841 8.29427 96.0841 11.8299C96.0841 14.9874 93.6296 17.3218 89.3169 17.3218C87.0926 17.3218 85.0506 16.6987 83.7889 15.8771V11.3851C85.0282 12.3632 86.9087 13.1413 88.7205 13.1413C90.2572 13.1413 90.9688 12.5849 90.9688 11.9632C90.9688 11.1634 89.7983 10.8069 88.3991 10.3171C86.5634 9.6723 83.6514 8.51597 83.6514 5.29187C83.6514 2.37931 86.0148 0 90.2348 0C92.0929 0 93.7671 0.466589 95.0064 1.15633V1.15778ZM108.242 1.15778V5.42663C107.164 4.69342 105.328 4.18191 103.838 4.18191C102.485 4.18191 101.796 4.60503 101.796 5.16001C101.796 5.71499 102.552 6.0048 103.907 6.47139C106.201 7.24952 109.32 8.29427 109.32 11.8299C109.32 14.9874 106.865 17.3218 102.552 17.3218C100.328 17.3218 98.2861 16.6987 97.0244 15.8771V11.3851C98.2637 12.3632 100.144 13.1413 101.956 13.1413C103.493 13.1413 104.204 12.5849 104.204 11.9632C104.204 11.1634 103.034 10.8069 101.635 10.3171C99.7989 9.6723 96.8869 8.51597 96.8869 5.29187C96.8869 2.37931 99.2503 0 103.47 0C105.328 0 107.003 0.466589 108.242 1.15633V1.15778ZM115.114 17.0001H120.114V0.391239H115.114V17.0015V17.0001ZM137.889 0.391239H133.142V9.1521H133.119L126.948 0.391239H122.177V17.0015H126.925V8.08561H126.947L133.118 17.0015H137.889V0.391239ZM145.938 0.0347768C141.716 0.0347768 139.354 2.41409 139.354 5.32665C139.354 8.55075 142.268 9.70708 144.102 10.3519C145.501 10.8417 146.672 11.1967 146.672 11.998C146.672 12.6211 145.96 13.1761 144.423 13.1761C142.612 13.1761 140.73 12.3979 139.492 11.4198V15.9118C140.753 16.7349 142.795 17.3565 145.02 17.3565C149.332 17.3565 151.787 15.0221 151.787 11.8647C151.787 8.32905 148.667 7.28429 146.374 6.50616C145.021 6.03957 144.263 5.77295 144.263 5.19479C144.263 4.61662 144.951 4.21669 146.305 4.21669C147.796 4.21669 149.631 4.7282 150.709 5.46141V1.19111C149.47 0.501366 147.796 0.0347768 145.938 0.0347768ZM152.954 17.0001H157.955V0.391239H152.954V17.0015V17.0001ZM165.019 12.6196H165.984C168.576 12.6196 170.25 11.1967 170.25 8.70579C170.25 6.21491 168.576 4.77022 165.984 4.77022H165.019V12.6196ZM175.297 8.70579C175.297 13.7093 171.397 17.0001 165.8 17.0001H160.019V0.391239H165.8C171.397 0.391239 175.297 3.70373 175.297 8.70724V8.70579ZM176.652 17.0001H188.489V12.6863H181.653V10.6185H187.8V6.70468H181.653V4.70356H188.489V0.391239H176.652V17.0015V17.0001ZM196.359 8.23921C197.621 8.23921 198.607 7.66104 198.607 6.50471C198.607 5.34838 197.621 4.77022 196.337 4.77022H195.281V8.23921H196.359ZM204.548 17.0001H198.652L195.395 11.8632H195.28V17.0001H190.28V0.391239H196.382C200.672 0.391239 203.653 2.23731 203.653 6.17288C203.653 7.72915 202.941 9.99688 200.096 11.1532L204.546 17.0015L204.548 17.0001Z" fill="white"/>
</g>
<g clip-path="url(#clip1_1433_14564)">
<path fill-rule="evenodd" clip-rule="evenodd" d="M-104.14 22.7493H-96.8003C-92.7178 22.7493 -90.5832 24.7953 -90.5832 27.3079C-90.5832 29.0424 -91.5922 30.2205 -92.9914 30.8436V30.8885C-91.202 31.5116 -90.193 32.8896 -90.193 34.6458C-90.193 37.1585 -92.1886 39.3595 -96.5013 39.3595H-104.14V22.7493ZM-97.029 29.3308C-95.8137 29.3308 -95.2621 28.7309 -95.2621 28.0629C-95.2621 27.3949 -95.8122 26.7732 -97.029 26.7732H-99.1846V29.3308H-97.029ZM-96.9602 35.3341C-95.6761 35.3341 -95.0558 34.7342 -95.0558 33.9561C-95.0558 33.178 -95.6986 32.5781 -96.9363 32.5781H-99.1846V35.3356H-96.9602V35.3341ZM-89.1391 32.5998V22.7493H-84.1388V32.5549C-84.1388 34.4009 -83.1986 35.379 -81.5931 35.379C-79.9876 35.379 -78.9786 34.401 -78.9786 32.5331V22.7493H-73.9544V32.5998C-73.9544 36.7803 -76.8439 39.7827 -81.5931 39.7827C-86.3422 39.7827 -89.1406 36.7803 -89.1406 32.5998H-89.1391ZM-61.2227 23.5491V27.818C-62.3005 27.0848 -64.1361 26.5733 -65.6265 26.5733C-66.9794 26.5733 -67.6685 26.9964 -67.6685 27.5514C-67.6685 28.1063 -66.9121 28.3962 -65.5578 28.8627C-63.2631 29.6409 -60.1449 30.6856 -60.1449 34.2213C-60.1449 37.3787 -62.5994 39.7131 -66.9121 39.7131C-69.1364 39.7131 -71.1784 39.09 -72.4401 38.2684V33.7764C-71.2008 34.7545 -69.3203 35.5326 -67.5085 35.5326C-65.9718 35.5326 -65.2603 34.9762 -65.2603 34.3546C-65.2603 33.5547 -66.4308 33.1983 -67.8299 32.7085C-69.6656 32.0637 -72.5776 30.9073 -72.5776 27.6832C-72.5776 24.7707 -70.2142 22.3914 -65.9943 22.3914C-64.1361 22.3914 -62.4619 22.8579 -61.2227 23.5477V23.5491ZM-58.8608 22.7493H-53.8605V39.3595H-58.8608V22.7493ZM-36.0822 39.3595H-40.8537L-47.0245 30.4436H-47.0469V39.3595H-51.7946V22.7493H-47.023L-40.8523 31.5101H-40.8298V22.7493H-36.0822V39.3595ZM-34.0178 22.7493H-22.1815V27.063H-29.0175V29.0642H-22.8706V32.978H-29.0175V35.0458H-22.1815V39.3595H-34.0178V22.7493ZM-9.63365 23.5491V27.818C-10.7114 27.0848 -12.5471 26.5733 -14.0375 26.5733C-15.3904 26.5733 -16.0795 26.9964 -16.0795 27.5514C-16.0795 28.1063 -15.3231 28.3962 -13.9687 28.8627C-11.6741 29.6409 -8.55587 30.6856 -8.55587 34.2213C-8.55587 37.3787 -11.0104 39.7131 -15.3231 39.7131C-17.5474 39.7131 -19.5894 39.09 -20.8511 38.2684V33.7764C-19.6118 34.7545 -17.7313 35.5326 -15.9195 35.5326C-14.3828 35.5326 -13.6713 34.9762 -13.6713 34.3546C-13.6713 33.5547 -14.8417 33.1983 -16.2409 32.7085C-18.0766 32.0637 -20.9886 30.9073 -20.9886 27.6832C-20.9886 24.7707 -18.6252 22.3914 -14.4052 22.3914C-12.5471 22.3914 -10.8729 22.8579 -9.63365 23.5477V23.5491ZM3.60181 23.5491V27.818C2.52402 27.0848 0.688332 26.5733 -0.80204 26.5733C-2.15489 26.5733 -2.84402 26.9964 -2.84402 27.5514C-2.84402 28.1063 -2.08762 28.3962 -0.733276 28.8627C1.56133 29.6409 4.6796 30.6856 4.6796 34.2213C4.6796 37.3787 2.22504 39.7131 -2.08762 39.7131C-4.31197 39.7131 -6.35394 39.09 -7.61559 38.2684V33.7764C-6.37636 34.7545 -4.49583 35.5326 -2.68407 35.5326C-1.14735 35.5326 -0.435799 34.9762 -0.435799 34.3546C-0.435799 33.5547 -1.60628 33.1983 -3.00546 32.7085C-4.84115 32.0637 -7.75313 30.9073 -7.75313 27.6832C-7.75313 24.7707 -5.38976 22.3914 -1.16977 22.3914C0.688332 22.3914 2.36257 22.8579 3.60181 23.5477V23.5491ZM10.4737 39.3914H15.474V22.7826H10.4737V39.3929V39.3914ZM33.2493 22.7826H28.5016V31.5435H28.4792L22.3084 22.7826H17.5369V39.3929H22.2845V30.477H22.307L28.4777 39.3929H33.2493V22.7826ZM41.2976 22.4261C37.0761 22.4261 34.7143 24.8054 34.7143 27.718C34.7143 30.9421 37.6277 32.0984 39.4619 32.7433C40.8611 33.233 42.0316 33.588 42.0316 34.3894C42.0316 35.0124 41.32 35.5674 39.7833 35.5674C37.9716 35.5674 36.0895 34.7893 34.8518 33.8112V38.3032C36.1134 39.1262 38.1554 39.7479 40.3798 39.7479C44.6924 39.7479 47.147 37.4135 47.147 34.256C47.147 30.7204 44.0272 29.6756 41.7341 28.8975C40.3813 28.4309 39.6234 28.1643 39.6234 27.5861C39.6234 27.008 40.311 26.608 41.6654 26.608C43.1557 26.608 44.9914 27.1196 46.0692 27.8528V23.5825C44.83 22.8927 43.1557 22.4261 41.2976 22.4261ZM48.3145 39.3914H53.3148V22.7826H48.3145V39.3929V39.3914ZM60.3795 35.011H61.3437C63.9357 35.011 65.61 33.588 65.61 31.0972C65.61 28.6063 63.9357 27.1616 61.3437 27.1616H60.3795V35.011ZM70.6566 31.0972C70.6566 36.1007 66.7565 39.3914 61.1598 39.3914H55.3792V22.7826H61.1598C66.7565 22.7826 70.6566 26.0951 70.6566 31.0986V31.0972ZM72.0125 39.3914H83.8487V35.0776H77.0127V33.0099H83.1596V29.096H77.0127V27.0949H83.8487V22.7826H72.0125V39.3929V39.3914ZM91.7191 30.6306C92.9808 30.6306 93.9674 30.0524 93.9674 28.8961C93.9674 27.7397 92.9808 27.1616 91.6967 27.1616H90.6414V30.6306H91.7191ZM99.908 39.3914H94.0123L90.755 34.2546H90.6399V39.3914H85.6396V22.7826H91.7416C96.0318 22.7826 99.0126 24.6287 99.0126 28.5642C99.0126 30.1205 98.301 32.3882 95.4563 33.5446L99.9065 39.3929L99.908 39.3914Z" fill="white"/>
</g>
<defs>
<clipPath id="clip0_1433_14564">
<rect width="109" height="17.3913" fill="white" transform="translate(0.5)"/>
</clipPath>
<clipPath id="clip1_1433_14564">
<rect width="89.816" height="17.3913" fill="white" transform="translate(10.092 22.3914)"/>
</clipPath>
</defs>
</svg>
