<svg width="36" height="40" viewBox="0 0 36 40" fill="none" xmlns="http://www.w3.org/2000/svg">
<mask id="mask0_1424_14347" style="mask-type:luminance" maskUnits="userSpaceOnUse" x="0" y="0" width="36" height="40">
<path d="M0.5 39.4571H35.5V0H0.5V39.4571Z" fill="white"/>
</mask>
<g mask="url(#mask0_1424_14347)">
<path fill-rule="evenodd" clip-rule="evenodd" d="M0.500488 35.3436H35.5001V0H0.500488V35.3436Z" fill="white"/>
</g>
<mask id="mask1_1424_14347" style="mask-type:luminance" maskUnits="userSpaceOnUse" x="0" y="0" width="36" height="40">
<path d="M0.5 39.4571H35.5V0H0.5V39.4571Z" fill="white"/>
</mask>
<g mask="url(#mask1_1424_14347)">
<path fill-rule="evenodd" clip-rule="evenodd" d="M0.5 35.3436H35.5V39.4637H0.500338L0.5 35.3436Z" fill="#FF322E"/>
</g>
<path fill-rule="evenodd" clip-rule="evenodd" d="M8.55624 9.30054L2.67297 26.4895H6.93262L10.9287 14.3397L12.9316 20.414H10.3407L9.30598 23.8814H14.0749L14.9348 26.4895H19.3162L13.4336 9.30054H8.55624ZM26.0099 9.30054H19.8942V26.4895H24.1235V12.7681H25.8277C27.8051 12.7681 28.931 13.6865 28.931 15.3462C28.931 16.9763 27.8051 17.9247 25.8277 17.9247H25.5539V21.3921H26.0099C30.5738 21.3921 33.2514 19.1543 33.2514 15.3462C33.2514 11.4639 30.5738 9.30054 26.0099 9.30054Z" fill="black"/>
</svg>
