<svg width="48" height="48" viewBox="0 0 48 48" fill="none" xmlns="http://www.w3.org/2000/svg">
<path d="M18.0481 23.904H21.7921V25.248H23.5201V23.904H24.4801V25.248H26.2081V23.904H29.9521C30.7201 23.904 31.3921 23.616 31.9681 23.04C32.6401 22.368 32.9281 21.312 32.8321 20.256L31.4881 5.37602C31.2961 2.88002 29.2801 0.960022 26.9761 0.960022H21.0241C18.6241 0.960022 16.6081 2.88002 16.4161 5.37602L15.1681 20.256C15.0721 21.312 15.3601 22.368 16.0321 23.04C16.6081 23.616 17.2801 23.904 18.0481 23.904Z" fill="white"/>
<path d="M38.7841 19.872H38.2081C37.0561 19.872 36.0001 20.832 36.0001 22.08C36.0001 23.04 36.5761 23.808 37.4401 24.096C37.2481 26.4 35.6161 28.32 33.5041 28.8C33.2161 27.84 32.3521 27.072 31.3921 27.072H16.5121C15.5521 27.072 14.6881 27.744 14.4001 28.8C12.2881 28.32 10.6561 26.4 10.4641 24.096C11.3281 23.808 12.0001 23.04 12.0001 21.984C12.0001 20.832 11.0401 19.776 9.79206 19.776H9.21606C8.06406 19.776 7.00806 20.736 7.00806 21.984C7.00806 22.944 7.68006 23.808 8.54406 24.096C8.73606 27.36 11.1361 30.048 14.2081 30.624C14.4961 31.776 15.3601 32.544 16.4161 32.544H31.2001C32.2561 32.544 33.1201 31.776 33.4081 30.624C36.5761 30.048 38.8801 27.456 39.0721 24.192C40.0321 24 40.7041 23.136 40.7041 22.08C40.8961 20.832 39.9361 19.872 38.7841 19.872Z" fill="white"/>
<path d="M31.68 42.432H24.864V36.768C26.208 36.48 27.36 35.616 28.032 34.368H25.728C24.576 35.328 23.04 35.232 21.984 34.368H19.68C20.352 35.616 21.504 36.48 22.848 36.768V42.432H16.032C16.032 42.432 16.032 42.432 15.936 42.432C14.688 42.432 13.728 43.488 13.728 44.736C13.728 45.984 14.784 47.04 16.032 47.04C17.28 47.04 18.336 45.984 18.336 44.736C18.336 44.544 18.336 44.448 18.24 44.256H21.504C21.504 44.448 21.408 44.544 21.408 44.736C21.408 45.984 22.464 47.04 23.712 47.04C24.96 47.04 26.016 45.984 26.016 44.736C26.016 44.544 26.016 44.448 25.92 44.256H29.184C29.184 44.448 29.088 44.544 29.088 44.736C29.088 45.984 30.144 47.04 31.392 47.04C32.64 47.04 33.696 45.984 33.696 44.736C33.888 43.488 32.928 42.432 31.68 42.432Z" fill="white"/>
</svg>
