<svg width="39" height="40" viewBox="0 0 39 40" fill="none" xmlns="http://www.w3.org/2000/svg">
<path fill-rule="evenodd" clip-rule="evenodd" d="M8.60511 19.9998C8.60511 18.7296 8.81608 17.5118 9.19261 16.3696L2.60193 11.3367C1.31744 13.9447 0.59375 16.8833 0.59375 19.9998C0.59375 23.1136 1.31655 26.0504 2.59926 28.6567L9.18638 23.614C8.81341 22.4771 8.60511 21.2638 8.60511 19.9998Z" fill="#FBBC05"/>
<path fill-rule="evenodd" clip-rule="evenodd" d="M20.1767 8.44434C22.9362 8.44434 25.4286 9.42211 27.3869 11.0221L33.0839 5.33322C29.6123 2.311 25.1616 0.444336 20.1767 0.444336C12.4377 0.444336 5.78652 4.87011 2.60156 11.3368L9.19224 16.3697C10.7108 11.7599 15.0396 8.44434 20.1767 8.44434Z" fill="#EB4335"/>
<path fill-rule="evenodd" clip-rule="evenodd" d="M20.1767 31.5555C15.0396 31.5555 10.7108 28.2399 9.19224 23.6301L2.60156 28.6621C5.78652 35.1297 12.4377 39.5555 20.1767 39.5555C24.9533 39.5555 29.5135 37.8595 32.9361 34.6817L26.6802 29.8452C24.915 30.9572 22.6923 31.5555 20.1767 31.5555Z" fill="#34A853"/>
<path fill-rule="evenodd" clip-rule="evenodd" d="M38.8709 19.9999C38.8709 18.8443 38.6929 17.5999 38.4258 16.4443H20.1777V23.9999H30.6815C30.1563 26.5759 28.7267 28.5563 26.6812 29.8452L32.9372 34.6817C36.5325 31.3448 38.8709 26.3741 38.8709 19.9999Z" fill="#4285F4"/>
</svg>
