<svg width="123" height="30" viewBox="0 0 123 30" fill="none" xmlns="http://www.w3.org/2000/svg">
<path d="M32.5672 10.6318L44.9299 10.6318L44.9299 12.9333L40.0622 12.9333L40.0622 25.9069L37.3942 25.9069L37.3942 12.9333L32.5469 12.9333L32.5672 10.6318ZM44.4003 14.8478L46.6814 14.8478L46.6814 16.9863L46.7221 16.9863C46.8036 16.6808 46.9462 16.3956 47.1498 16.1105C47.3535 15.8254 47.5979 15.5606 47.9034 15.3366C48.1886 15.0922 48.5144 14.9089 48.881 14.7663C49.2273 14.6237 49.5939 14.5423 49.9605 14.5423C50.2456 14.5423 50.4493 14.5626 50.5511 14.5626C50.6529 14.583 50.7751 14.6034 50.877 14.6034L50.877 16.9455C50.714 16.9048 50.5307 16.8844 50.3474 16.8641C50.1641 16.8437 50.0012 16.8233 49.8179 16.8233C49.4106 16.8233 49.0236 16.9048 48.657 17.0677C48.2904 17.2307 47.9849 17.4751 47.6998 17.7806C47.435 18.1064 47.2109 18.4934 47.048 18.9618C46.8851 19.4303 46.8036 19.9802 46.8036 20.5912L46.8036 25.8458L44.3596 25.8458L44.4003 14.8478ZM62.0787 25.9069L59.6754 25.9069L59.6754 24.359L59.6347 24.359C59.3292 24.9293 58.8811 25.357 58.2905 25.7032C57.6998 26.0495 57.0888 26.2124 56.4778 26.2124C55.0318 26.2124 53.9727 25.8662 53.321 25.133C52.6692 24.4201 52.3434 23.3203 52.3434 21.8743L52.3434 14.8478L54.7874 14.8478L54.7874 21.6299C54.7874 22.6075 54.9707 23.3 55.3577 23.6869C55.7243 24.0943 56.2538 24.2979 56.9259 24.2979C57.4351 24.2979 57.8628 24.2165 58.209 24.0535C58.5552 23.8906 58.8404 23.6869 59.044 23.4222C59.2681 23.1574 59.4106 22.8315 59.5125 22.4649C59.6143 22.0983 59.655 21.691 59.655 21.2633L59.655 14.8478L62.0991 14.8478L62.0991 25.9069L62.0787 25.9069ZM66.2335 22.3631C66.315 23.0759 66.5797 23.5647 67.0482 23.8702C67.5166 24.1554 68.0869 24.2979 68.7386 24.2979C68.9627 24.2979 69.2274 24.2776 69.5126 24.2368C69.7977 24.1961 70.0828 24.135 70.3272 24.0332C70.592 23.9313 70.7957 23.7888 70.9586 23.5851C71.1215 23.3814 71.203 23.137 71.1826 22.8315C71.1623 22.526 71.0604 22.2613 70.8364 22.0576C70.6124 21.8539 70.3476 21.7114 70.0217 21.5688C69.6959 21.4466 69.3089 21.3448 68.8812 21.2633C68.4535 21.1818 68.0258 21.08 67.5777 20.9781C67.1297 20.8763 66.6816 20.7541 66.2539 20.6116C65.8262 20.469 65.4596 20.2857 65.1133 20.0209C64.7875 19.7765 64.5023 19.471 64.319 19.084C64.1154 18.6971 64.0135 18.249 64.0135 17.6787C64.0135 17.0677 64.1561 16.5789 64.4616 16.1716C64.7467 15.7643 65.1337 15.4384 65.5818 15.194C66.0298 14.9496 66.539 14.7663 67.0889 14.6645C67.6388 14.5626 68.1684 14.5219 68.6572 14.5219C69.2274 14.5219 69.7773 14.583 70.2865 14.7052C70.7957 14.8274 71.2845 15.0107 71.6918 15.2958C72.1195 15.5606 72.4657 15.9272 72.7305 16.3549C73.0156 16.7826 73.1786 17.3121 73.26 17.9231L70.7142 17.9231C70.592 17.3325 70.3272 16.9455 69.9199 16.7419C69.4922 16.5382 69.0238 16.4364 68.4739 16.4364C68.3109 16.4364 68.0869 16.4567 67.8629 16.4771C67.6185 16.5178 67.4148 16.5586 67.1908 16.64C66.9871 16.7215 66.8038 16.8437 66.6612 16.9863C66.5186 17.1288 66.4372 17.3325 66.4372 17.5769C66.4372 17.8824 66.539 18.1064 66.7427 18.2897C66.9464 18.473 67.2111 18.6156 67.5574 18.7582C67.8832 18.8804 68.2702 18.9822 68.6979 19.0637C69.1256 19.1451 69.5737 19.247 70.0217 19.3488C70.4698 19.4506 70.8975 19.5728 71.3252 19.7154C71.7529 19.858 72.1399 20.0413 72.4657 20.306C72.7916 20.5504 73.0767 20.856 73.2804 21.2226C73.4841 21.5892 73.5859 22.0576 73.5859 22.5871C73.5859 23.2389 73.4433 23.7888 73.1378 24.2572C72.8323 24.7053 72.4454 25.0922 71.9769 25.3774C71.5085 25.6625 70.9586 25.8662 70.3883 26.0087C69.7977 26.1309 69.2274 26.2124 68.6572 26.2124C67.9647 26.2124 67.313 26.1309 66.7223 25.968C66.1317 25.8051 65.6021 25.5607 65.1744 25.2552C64.7467 24.9293 64.4005 24.5423 64.1561 24.0535C63.9117 23.5851 63.7691 23.0148 63.7488 22.3427L66.2131 22.3427L66.2131 22.3631L66.2335 22.3631ZM74.2784 14.8477L76.1318 14.8477L76.1318 11.5076L78.5758 11.5076L78.5758 14.8274L80.7754 14.8274L80.7754 16.64L78.5758 16.64L78.5758 22.5464C78.5758 22.8112 78.5961 23.0148 78.6165 23.2185C78.6369 23.4018 78.698 23.5647 78.7591 23.6869C78.8405 23.8091 78.9627 23.911 79.1053 23.9721C79.2682 24.0332 79.4719 24.0739 79.757 24.0739C79.92 24.0739 80.1033 24.0739 80.2662 24.0535C80.4292 24.0332 80.6125 24.0128 80.7754 23.9721L80.7754 25.8662C80.5106 25.9069 80.2459 25.9273 79.9811 25.9476C79.7163 25.9884 79.4719 25.9884 79.1868 25.9884C78.535 25.9884 78.0259 25.9273 77.6389 25.8051C77.2519 25.6829 76.9464 25.4996 76.7224 25.2755C76.4984 25.0311 76.3558 24.746 76.2743 24.3998C76.1929 24.0535 76.1521 23.6258 76.1318 23.1778L76.1318 16.6604L74.2784 16.6604L74.2784 14.807L74.2784 14.8477ZM82.4862 14.8477L84.7876 14.8477L84.7876 16.3549L84.8284 16.3549C85.1746 15.7032 85.643 15.2551 86.254 14.97C86.865 14.6848 87.5168 14.5422 88.25 14.5422C89.1258 14.5422 89.8793 14.6848 90.5311 15.0107C91.1828 15.3162 91.7123 15.7235 92.14 16.2734C92.5677 16.803 92.8936 17.4343 93.0973 18.1472C93.3009 18.86 93.4231 19.6339 93.4231 20.4282C93.4232 21.1818 93.3213 21.8947 93.138 22.5871C92.9344 23.2796 92.6492 23.911 92.2622 24.4405C91.8753 24.97 91.3865 25.3977 90.7755 25.7236C90.1645 26.0495 89.472 26.2124 88.6573 26.2124C88.3111 26.2124 87.9445 26.1717 87.5983 26.1106C87.252 26.0495 86.9058 25.9476 86.5799 25.8051C86.254 25.6625 85.9485 25.4792 85.6838 25.2552C85.3986 25.0311 85.1746 24.7664 84.9913 24.4812L84.9506 24.4812L84.9506 30.0006L82.5066 30.0006L82.5066 14.8477L82.4862 14.8477ZM91.0199 20.3875C91.0199 19.8987 90.9588 19.4099 90.8162 18.9415C90.694 18.473 90.4903 18.0657 90.2256 17.6991C89.9608 17.3325 89.6349 17.0474 89.2683 16.8233C88.8814 16.5993 88.4333 16.4975 87.9445 16.4975C86.9262 16.4975 86.1522 16.8437 85.6227 17.5565C85.1135 18.2694 84.8487 19.2266 84.8487 20.4079C84.8487 20.9782 84.9098 21.4873 85.0524 21.9558C85.195 22.4242 85.3783 22.8315 85.6634 23.1778C85.9282 23.524 86.254 23.7888 86.641 23.9924C87.028 24.1961 87.4557 24.2979 87.9649 24.2979C88.5351 24.2979 88.9832 24.1757 89.3702 23.9517C89.7571 23.7277 90.0626 23.4222 90.3274 23.0759C90.5718 22.7093 90.7551 22.302 90.8569 21.8336C90.9588 21.3448 91.0199 20.8763 91.0199 20.3875ZM95.3173 10.6318L97.7613 10.6318L97.7613 12.9333L95.3173 12.9333L95.3173 10.6318ZM95.3173 14.8477L97.7613 14.8477L97.7613 25.9069L95.3173 25.9069L95.3173 14.8477ZM99.9405 10.6318L102.385 10.6318L102.385 25.9069L99.9405 25.9069L99.9405 10.6318ZM109.839 26.2124C108.963 26.2124 108.169 26.0698 107.476 25.7643C106.784 25.4588 106.213 25.0719 105.725 24.5627C105.256 24.0535 104.89 23.4222 104.645 22.7093C104.401 21.9965 104.258 21.2022 104.258 20.3671C104.258 19.5321 104.38 18.7582 104.645 18.0453C104.89 17.3325 105.256 16.7215 105.725 16.192C106.193 15.6828 106.784 15.2755 107.476 14.9903C108.169 14.7052 108.963 14.5422 109.839 14.5422C110.715 14.5422 111.509 14.6848 112.201 14.9903C112.894 15.2755 113.464 15.6828 113.953 16.192C114.421 16.7011 114.788 17.3325 115.032 18.0453C115.277 18.7582 115.419 19.5321 115.419 20.3671C115.419 21.2225 115.297 21.9965 115.032 22.7093C114.768 23.4222 114.421 24.0332 113.953 24.5627C113.484 25.0719 112.894 25.4792 112.201 25.7643C111.509 26.0495 110.735 26.2124 109.839 26.2124ZM109.839 24.2776C110.368 24.2776 110.857 24.1554 111.244 23.9313C111.651 23.7073 111.957 23.4018 112.222 23.0352C112.486 22.6686 112.67 22.2409 112.792 21.7928C112.914 21.3244 112.975 20.8559 112.975 20.3671C112.975 19.8987 112.914 19.4303 112.792 18.9618C112.67 18.4934 112.486 18.0861 112.222 17.7195C111.957 17.3529 111.631 17.0677 111.244 16.8437C110.837 16.6197 110.368 16.4975 109.839 16.4975C109.309 16.4975 108.82 16.6197 108.433 16.8437C108.026 17.0677 107.721 17.3732 107.456 17.7195C107.191 18.0861 107.008 18.4934 106.886 18.9618C106.763 19.4303 106.702 19.8987 106.702 20.3671C106.702 20.8559 106.763 21.3244 106.886 21.7928C107.008 22.2613 107.191 22.6686 107.456 23.0352C107.721 23.4018 108.046 23.7073 108.433 23.9313C108.841 24.1757 109.309 24.2776 109.839 24.2776ZM116.152 14.8477L118.006 14.8477L118.006 11.5076L120.45 11.5076L120.45 14.8274L122.649 14.8274L122.649 16.64L120.45 16.64L120.45 22.5464C120.45 22.8112 120.47 23.0148 120.491 23.2185C120.511 23.4018 120.572 23.5647 120.633 23.6869C120.715 23.8091 120.837 23.911 120.979 23.9721C121.142 24.0332 121.346 24.0739 121.631 24.0739C121.794 24.0739 121.977 24.0739 122.14 24.0535C122.303 24.0332 122.487 24.0128 122.649 23.9721L122.649 25.8662C122.385 25.9069 122.12 25.9273 121.855 25.9476C121.59 25.9884 121.346 25.9884 121.061 25.9884C120.409 25.9884 119.9 25.9273 119.513 25.8051C119.126 25.6829 118.821 25.4996 118.596 25.2755C118.372 25.0311 118.23 24.746 118.148 24.3998C118.067 24.0535 118.026 23.6258 118.006 23.1778L118.006 16.6604L116.152 16.6604L116.152 14.807L116.152 14.8477Z" fill="#161616"/>
<path d="M29.7163 10.6315L18.5349 10.6315L15.0929 -1.28019e-06L11.6306 10.6315L0.44922 10.6111L9.49207 17.1896L6.02972 27.821L15.0726 21.2425L24.1154 27.821L20.6734 17.1896L29.7163 10.6315Z" fill="#00B67A"/>
<path d="M21.4462 19.5927L20.6723 17.1895L15.0918 21.2424L21.4462 19.5927Z" fill="#005128"/>
</svg>
