<svg width="13" height="12" viewBox="0 0 13 12" fill="none" xmlns="http://www.w3.org/2000/svg">
<g clip-path="url(#clip0_289_33010)">
<mask id="path-1-inside-1_289_33010" fill="white">
<path fill-rule="evenodd" clip-rule="evenodd" d="M12.8244 4.60927C12.7559 4.39962 12.5618 4.25845 12.3409 4.25845H8.5157L7.33405 0.620324V0.619624C7.26488 0.409974 7.07076 0.268799 6.84981 0.268799C6.62958 0.268799 6.43475 0.409974 6.36628 0.62033L5.18393 4.25845H1.35876C1.13782 4.25845 0.943696 4.39962 0.875227 4.60927C0.806758 4.81892 0.880165 5.04762 1.05946 5.17821L4.15476 7.42715L2.9724 11.066C2.90393 11.2763 2.97946 11.505 3.15876 11.6342C3.2477 11.6984 3.35217 11.731 3.45663 11.731C3.56111 11.731 3.66558 11.6984 3.75523 11.6335L6.84981 9.38527L9.9437 11.6335C10.1223 11.7634 10.363 11.7634 10.5416 11.6342C10.7209 11.505 10.7957 11.2763 10.7272 11.0653L9.54488 7.42715L12.6409 5.17821C12.8195 5.04762 12.8936 4.81892 12.8244 4.60927"/>
</mask>
<path d="M8.5157 4.25845L7.5646 4.56736L7.78907 5.25845H8.5157V4.25845ZM7.33405 0.620324H6.33405V0.77865L6.38296 0.929233L7.33405 0.620324ZM7.33405 0.619624H8.33405V0.458908L8.28369 0.306285L7.33405 0.619624ZM6.36628 0.62033L5.41539 0.310823L5.41525 0.311253L6.36628 0.62033ZM5.18393 4.25845V5.25845H5.91043L6.13497 4.56753L5.18393 4.25845ZM0.875227 4.60927L-0.0753602 4.29881L-0.0753629 4.29882L0.875227 4.60927ZM1.05946 5.17821L0.470758 5.98655L0.471665 5.98721L1.05946 5.17821ZM4.15476 7.42715L5.10581 7.73617L5.33033 7.0452L4.74256 6.61814L4.15476 7.42715ZM2.9724 11.066L3.9233 11.3755L3.92346 11.375L2.9724 11.066ZM3.15876 11.6342L3.74428 10.8236L3.74331 10.8229L3.15876 11.6342ZM3.75523 11.6335L4.34187 12.4433L4.34299 12.4425L3.75523 11.6335ZM6.84981 9.38527L7.43767 8.5763L6.84988 8.14917L6.26205 8.57624L6.84981 9.38527ZM9.9437 11.6335L10.5319 10.8248L10.5315 10.8245L9.9437 11.6335ZM10.5416 11.6342L9.95703 10.8229L9.95552 10.8239L10.5416 11.6342ZM10.7272 11.0653L11.6784 10.7567L11.6783 10.7562L10.7272 11.0653ZM9.54488 7.42715L8.95717 6.61808L8.36925 7.04514L8.59384 7.73623L9.54488 7.42715ZM12.6409 5.17821L13.2286 5.98729L13.2311 5.98543L12.6409 5.17821ZM13.775 4.29881C13.5724 3.67854 12.9952 3.25845 12.3409 3.25845V5.25845C12.1284 5.25845 11.9395 5.1207 11.8738 4.91972L13.775 4.29881ZM12.3409 3.25845H8.5157V5.25845H12.3409V3.25845ZM9.46679 3.94954L8.28514 0.311414L6.38296 0.929233L7.5646 4.56736L9.46679 3.94954ZM8.33405 0.620324V0.619624H6.33405V0.620324H8.33405ZM8.28369 0.306285C8.08004 -0.310918 7.50469 -0.731201 6.84981 -0.731201V1.2688C6.63683 1.2688 6.44971 1.13087 6.38441 0.932962L8.28369 0.306285ZM6.84981 -0.731201C6.19636 -0.731201 5.61783 -0.311134 5.41539 0.310823L7.31718 0.929837C7.25168 1.13108 7.0628 1.2688 6.84981 1.2688V-0.731201ZM5.41525 0.311253L4.2329 3.94937L6.13497 4.56753L7.31732 0.929407L5.41525 0.311253ZM5.18393 3.25845H1.35876V5.25845H5.18393V3.25845ZM1.35876 3.25845C0.704466 3.25845 0.12722 3.67853 -0.0753602 4.29881L1.82581 4.91972C1.76017 5.12072 1.57118 5.25845 1.35876 5.25845V3.25845ZM-0.0753629 4.29882C-0.278159 4.91978 -0.0593938 5.60045 0.470758 5.98655L1.64817 4.36986C1.81972 4.4948 1.89168 4.71806 1.82582 4.91972L-0.0753629 4.29882ZM0.471665 5.98721L3.56696 8.23616L4.74256 6.61814L1.64726 4.3692L0.471665 5.98721ZM3.2037 7.11812L2.02135 10.7569L3.92346 11.375L5.10581 7.73617L3.2037 7.11812ZM2.0215 10.7565C1.81762 11.3829 2.04421 12.0637 2.5742 12.4456L3.74331 10.8229C3.91472 10.9463 3.99025 11.1698 3.9233 11.3755L2.0215 10.7565ZM2.57324 12.4449C2.83453 12.6336 3.14435 12.731 3.45663 12.731V10.731C3.55999 10.731 3.66086 10.7633 3.74428 10.8236L2.57324 12.4449ZM3.45663 12.731C3.76995 12.731 4.0801 12.633 4.34187 12.4433L3.16858 10.8237C3.25107 10.7639 3.35227 10.731 3.45663 10.731V12.731ZM4.34299 12.4425L7.43758 10.1943L6.26205 8.57624L3.16746 10.8245L4.34299 12.4425ZM6.26196 10.1942L9.35584 12.4425L10.5315 10.8245L7.43767 8.5763L6.26196 10.1942ZM9.35553 12.4422C9.8846 12.827 10.5991 12.8267 11.1276 12.4445L9.95552 10.8239C10.1268 10.7 10.36 10.6997 10.5319 10.8248L9.35553 12.4422ZM11.1261 12.4456C11.659 12.0617 11.8806 11.3799 11.6784 10.7567L9.77603 11.3739C9.7108 11.1728 9.78275 10.9484 9.95703 10.8229L11.1261 12.4456ZM11.6783 10.7562L10.4959 7.11807L8.59384 7.73623L9.77619 11.3744L11.6783 10.7562ZM10.1326 8.23622L13.2286 5.98728L12.0532 4.36914L8.95717 6.61808L10.1326 8.23622ZM13.2311 5.98543C13.7571 5.60083 13.9802 4.92075 13.774 4.2959L11.8748 4.92265C11.8069 4.71709 11.8818 4.49442 12.0506 4.371L13.2311 5.98543Z" fill="white" mask="url(#path-1-inside-1_289_33010)"/>
<path d="M6.36628 0.620086C6.43475 0.40973 6.62958 0.268555 6.84981 0.268555V9.38502L3.75523 11.6333C3.66558 11.6982 3.56111 11.7308 3.45663 11.7308C3.35217 11.7308 3.2477 11.6982 3.15876 11.634C2.97946 11.5048 2.90393 11.2761 2.9724 11.0657L4.15476 7.42691L1.05946 5.17796C0.880165 5.04738 0.806758 4.81867 0.875227 4.60902C0.943696 4.39938 1.13782 4.2582 1.35876 4.2582H5.18393L6.36628 0.620086Z" fill="white"/>
</g>
<defs>
<clipPath id="clip0_289_33010">
<rect width="12" height="12" fill="white" transform="translate(0.849915)"/>
</clipPath>
</defs>
</svg>
