<svg width="155" height="24" viewBox="0 0 155 24" fill="none" xmlns="http://www.w3.org/2000/svg">
<path d="M42.3697 17.9122V11.5316H36.7066V17.9122H32.9141V2.63965H36.7066V8.48217H42.3697V2.63965H46.1623V17.9122H42.3697Z" fill="#F19200"/>
<path d="M53.2858 18.1422C49.647 18.1422 47.2383 15.9129 47.2383 12.1716C47.2383 8.48157 49.6727 6.22656 53.2602 6.22656C56.899 6.22656 59.3077 8.43032 59.3077 12.1716C59.3333 15.9129 56.899 18.1422 53.2858 18.1422ZM53.2858 8.99407C51.7227 8.99407 51.0052 10.4291 51.0052 12.1972C51.0052 13.9653 51.6971 15.426 53.2602 15.426C54.8233 15.426 55.5408 13.991 55.5408 12.1972C55.5665 10.4291 54.8489 8.99407 53.2858 8.99407Z" fill="#F19200"/>
<path d="M74.4 17.9116V11.3772C74.4 10.1728 74.0925 9.3272 72.9137 9.3272C71.7094 9.3272 71.1712 10.5572 71.0687 11.3003V17.9116H67.3787V11.3772C67.3787 10.1728 67.0712 9.3272 65.8925 9.3272C64.6881 9.3272 64.1499 10.5572 64.0474 11.3003V17.9116H60.3574V6.48281H63.7912L63.9962 8.22532C64.7906 6.99531 65.8156 6.22656 67.3531 6.22656C68.9162 6.22656 70.1206 6.89281 70.6587 8.35345C71.5812 7.09781 72.6575 6.22656 74.3744 6.22656C76.7319 6.22656 78.0644 7.71282 78.0644 10.5316V17.886H74.4V17.9116Z" fill="#F19200"/>
<path d="M82.8563 13.0941C82.9331 14.7854 84.2144 15.4516 85.675 15.4516C87.11 15.4516 88.5194 14.7854 88.9551 14.401L90.1594 16.5279C90.1594 16.5279 88.5963 18.1422 85.1369 18.1422C81.6775 18.1422 79.1406 16.0154 79.1406 12.1972C79.1406 8.35345 81.6775 6.22656 85.1113 6.22656C88.5194 6.22656 90.4669 8.63532 90.4669 12.1203V13.0941H82.8563ZM84.9832 8.68658C83.5994 8.68658 82.9075 9.73721 82.805 10.8647H87.0075C87.0075 9.68596 86.3413 8.68658 84.9832 8.68658Z" fill="#F19200"/>
<path d="M102.206 17.9383L100.797 14.0176H94.1853L92.7759 17.9383H91.0078L96.5428 3.12695H98.5416L104.128 17.9383H102.206ZM97.5166 4.79259L94.6978 12.557H100.31L97.5166 4.79259Z" fill="#4B4B4B"/>
<path d="M112.353 17.9386L112.097 16.2473C112.045 16.3242 111.072 18.1692 108.458 18.1692C105.665 18.1692 103.896 15.7861 103.896 12.5829C103.896 9.40542 105.87 7.02229 108.688 7.02229C111.097 7.02229 111.994 8.79042 112.122 9.04667V2.66602H113.813V17.9386H112.353ZM108.97 8.40604C106.971 8.40604 105.665 10.3023 105.665 12.5829C105.665 14.8379 106.869 16.7598 108.868 16.7598C110.867 16.7598 112.173 14.8636 112.173 12.5829C112.173 10.3023 110.943 8.40604 108.97 8.40604Z" fill="#4B4B4B"/>
<path d="M120.628 17.9386H118.834L114.734 7.25293H116.554L119.731 16.273L122.934 7.25293H124.728L120.628 17.9386Z" fill="#4B4B4B"/>
<path d="M126.623 4.86946C125.956 4.86946 125.393 4.35697 125.393 3.69071C125.393 3.02446 125.931 2.48633 126.597 2.48633C127.263 2.48633 127.827 2.99883 127.827 3.66509C127.827 4.33134 127.289 4.86946 126.623 4.86946ZM125.751 7.2526H127.468V17.9383H125.751V7.2526Z" fill="#4B4B4B"/>
<path d="M135.567 17.1695C134.926 17.7333 133.953 18.1433 132.569 18.1433C130.339 18.1433 128.828 16.7339 128.469 16.247L129.468 15.1964C130.032 15.837 131.236 16.7595 132.62 16.7595C134.004 16.7595 134.901 16.1957 134.901 15.1451C134.901 14.0945 133.799 13.7357 133.209 13.4795C132.594 13.2745 131.646 12.9926 131.134 12.762C130.621 12.557 129.007 11.8907 129.007 10.0457C129.007 8.20071 130.596 6.9707 132.799 6.9707C135.029 6.9707 136.361 8.30321 136.438 8.40571L135.644 9.55884C135.08 8.99509 134.004 8.32883 132.799 8.32883C131.595 8.32883 130.596 8.81572 130.596 9.84072C130.596 10.8914 131.621 11.2245 132.338 11.4807C133.03 11.737 133.824 11.9676 134.337 12.1726C134.849 12.3776 136.541 13.0695 136.541 14.8889C136.566 15.8626 136.156 16.6314 135.567 17.1695Z" fill="#4B4B4B"/>
<path d="M142.253 18.143C139.255 18.143 137.205 15.9393 137.205 12.5824C137.205 9.19985 139.255 6.99609 142.253 6.99609C145.251 6.99609 147.301 9.19985 147.301 12.5824C147.301 15.9649 145.277 18.143 142.253 18.143ZM142.253 8.40548C140.152 8.40548 138.973 10.1224 138.973 12.608C138.973 15.068 140.152 16.7849 142.253 16.7849C144.354 16.7849 145.533 15.0936 145.533 12.608C145.533 10.1224 144.354 8.40548 142.253 8.40548Z" fill="#4B4B4B"/>
<path d="M154.092 8.81524C154.092 8.81524 153.81 8.68712 153.349 8.68712C152.862 8.68712 152.349 8.78962 151.76 9.19962C151.145 9.60962 150.428 10.5065 150.223 11.7621V17.9378H148.531V7.25211H150.094L150.223 9.40462C150.786 8.17461 152.016 7.02148 153.503 7.02148C154.015 7.02148 154.348 7.14961 154.348 7.14961L154.092 8.81524Z" fill="#4B4B4B"/>
<path d="M19.7393 11.5571L19.2524 11.0702L11.898 3.71582L5.54297 10.0709V16.2465C5.54297 17.1434 6.2861 17.8865 7.18298 17.8865H14.6911L20.4312 23.6266V17.8865H23.6343C24.5312 17.8865 25.2743 17.1434 25.2743 16.2465V11.5571H20.4055H19.7393Z" fill="#4B4B4B"/>
<path d="M20.3566 0H10.5165L0.599609 9.91693H3.41837L11.9259 1.40938L20.4335 9.91693H30.2735L20.3566 0Z" fill="#F19200"/>
</svg>
