<svg width="72" height="48" viewBox="0 0 72 48" fill="none" xmlns="http://www.w3.org/2000/svg">
<path d="M42.0246 42.4407V26.9386C42.0246 23.6325 39.3062 20.9141 36.0001 20.9141C32.694 20.9141 29.9756 23.6325 29.9756 26.9386V42.4407H31.445V26.8651C31.445 24.3672 33.5021 22.31 36.0001 22.31C38.498 22.31 40.5552 24.3672 40.5552 26.8651V42.4407H42.0246Z" fill="white"/>
<path d="M64.139 0.489624H7.86149C7.56762 0.489624 7.27374 0.710033 7.20027 1.00391L6.46558 3.06105H65.6819L64.9472 1.00391C64.7268 0.710033 64.4329 0.489624 64.139 0.489624Z" fill="white"/>
<path d="M66.196 42.4406V15.0366H5.8042V42.4406H29.2409V26.9386C29.2409 23.1917 32.2532 20.1794 36.0001 20.1794C39.7471 20.1794 42.7593 23.1917 42.7593 26.9386V42.4406H66.196ZM15.0613 26.1304V28.408H12.0491V26.1304H15.0613ZM12.1226 25.3957V23.1182H15.1348V25.3957H12.1226ZM15.0613 29.0692V31.3468H12.0491V29.0692H15.0613ZM15.0613 32.0815V34.359H12.0491V32.0815H15.0613ZM18.8083 26.1304V28.408H15.8695V26.1304H18.8083ZM15.796 25.3957V23.1182H18.7348V25.3957H15.796ZM18.8083 29.0692V31.3468H15.8695V29.0692H18.8083ZM18.8083 32.0815V34.359H15.8695V32.0815H18.8083ZM22.4818 29.0692V31.3468H19.4695V29.0692H22.4818ZM19.543 28.3345V26.057H22.5552V28.3345H19.543ZM22.4818 32.0815V34.359H19.4695V32.0815H22.4818ZM22.4818 25.3957H19.4695V23.1182H22.4818V25.3957ZM56.9389 31.3468V29.0692H59.8777V31.3468H56.9389ZM59.8777 32.0815V34.359H56.9389V32.0815H59.8777ZM56.9389 28.3345V26.057H59.8777V28.3345H56.9389ZM56.9389 25.3957V23.1182H59.8777V25.3957H56.9389ZM53.192 31.3468V29.0692H56.2042V31.3468H53.192ZM56.2042 32.0815V34.359H53.192V32.0815H56.2042ZM53.192 28.3345V26.057H56.2042V28.3345H53.192ZM53.192 25.3957V23.1182H56.2042V25.3957H53.192ZM49.5185 28.3345V26.057H52.4573V28.3345H49.5185ZM52.4573 29.0692V31.3468H49.5185V29.0692H52.4573ZM49.5185 25.3957V23.1182H52.4573V25.3957H49.5185ZM49.5185 32.0815H52.4573V34.359H49.5185V32.0815Z" fill="white"/>
<path d="M65.9022 3.72229H6.17162L5.06958 6.66107H66.9308L65.9022 3.72229Z" fill="white"/>
<path d="M67.2246 7.39575H4.77564L3.74707 10.2611H68.2532L67.2246 7.39575Z" fill="white"/>
<path d="M4.04109 47.51H67.9595C68.4003 47.51 68.6942 47.2162 68.6942 46.7753V44.6447C68.6942 44.2039 68.4003 43.91 67.9595 43.91H4.04109C3.60027 43.91 3.3064 44.2039 3.3064 44.6447V46.7753C3.3064 47.1427 3.67374 47.51 4.04109 47.51Z" fill="white"/>
<path d="M68.5471 10.9957H3.45322L2.86546 12.5386C2.71852 13.0529 3.0124 13.4937 3.52669 13.4937H68.4001C68.9144 13.4937 69.2818 12.9794 69.0614 12.5386L68.5471 10.9957Z" fill="white"/>
<path d="M36.4409 32.9631C36.4409 33.6978 37.0287 34.2855 37.7634 34.2855C38.4981 34.2855 39.0858 33.6978 39.0858 32.9631C39.0858 32.2284 38.4981 31.6406 37.7634 31.6406C37.0287 31.6406 36.4409 32.2284 36.4409 32.9631Z" fill="white"/>
</svg>
