<svg width="13" height="12" viewBox="0 0 13 12" fill="none" xmlns="http://www.w3.org/2000/svg">
<path fill-rule="evenodd" clip-rule="evenodd" d="M12.2244 4.60927C12.1559 4.39962 11.9618 4.25845 11.7408 4.25845H7.91566L6.73402 0.620324V0.619624C6.66484 0.409974 6.47072 0.268799 6.24978 0.268799C6.02955 0.268799 5.83472 0.409974 5.76625 0.62033L4.5839 4.25845H0.758722C0.537784 4.25845 0.343659 4.39962 0.27519 4.60927C0.206722 4.81892 0.280128 5.04762 0.459428 5.17821L3.55472 7.42715L2.37237 11.066C2.3039 11.2763 2.37943 11.505 2.55872 11.6342C2.64766 11.6984 2.75213 11.731 2.8566 11.731C2.96107 11.731 3.06555 11.6984 3.15519 11.6335L6.24978 9.38527L9.34366 11.6335C9.52225 11.7634 9.76295 11.7634 9.94155 11.6342C10.1208 11.505 10.1957 11.2763 10.1272 11.0653L8.94484 7.42715L12.0408 5.17821C12.2194 5.04762 12.2935 4.81892 12.2244 4.60927" fill="white"/>
</svg>
