<svg width="82" height="82" viewBox="0 0 82 82" fill="none" xmlns="http://www.w3.org/2000/svg">
<path d="M47.8881 47.232V26.24C47.8881 24.108 49.5281 22.468 51.6601 22.468H64.1241C65.4361 22.468 66.7481 23.288 67.4041 24.436L80.0321 46.576C80.1961 47.068 80.3601 47.56 80.3601 47.888V52.152H1.64011V47.068H47.8881V47.232ZM53.6281 41H70.0281L63.4681 28.372H53.4641L53.6281 41Z" fill="white"/>
<path d="M80.3601 53.9559H71.0121C71.5041 54.2839 71.9961 54.6119 72.4881 55.1039C74.1281 56.7439 75.1121 59.0399 75.4401 61.1719H77.5721C79.0481 61.1719 80.3601 59.8599 80.3601 58.3839V53.9559Z" fill="white"/>
<path d="M59.04 53.9559H26.896C27.388 54.2839 27.88 54.6119 28.208 55.1039C29.848 56.7439 30.832 58.8759 31.16 61.1719H54.612C54.94 58.8759 55.924 56.7439 57.564 55.1039C58.056 54.6119 58.548 54.2839 59.04 53.9559Z" fill="white"/>
<path d="M1.64007 53.9559V59.0399C1.64007 60.1879 2.62407 61.1719 3.77207 61.1719H10.6601C10.9881 58.8759 11.9721 56.7439 13.6121 55.1039C14.1041 54.6119 14.4321 54.2839 14.9241 53.9559H1.64007Z" fill="white"/>
<path d="M14.7601 56.2519C18.2041 52.8079 23.7801 52.8079 27.2241 56.2519C30.6681 59.6959 30.6681 65.2719 27.2241 68.7159C23.7801 72.1599 18.2041 72.1599 14.7601 68.7159C11.3161 65.2719 11.3161 59.6959 14.7601 56.2519ZM17.8761 65.4359C19.5161 67.0759 22.1401 67.0759 23.7801 65.4359C25.4201 63.7959 25.4201 61.1719 23.7801 59.5319C22.1401 57.8919 19.5161 57.8919 17.8761 59.5319C16.2361 61.1719 16.2361 63.7959 17.8761 65.4359Z" fill="white"/>
<path d="M58.8761 56.2519C62.3201 52.8079 67.8961 52.8079 71.3401 56.2519C74.7841 59.6959 74.7841 65.2719 71.3401 68.7159C67.8961 72.1599 62.3201 72.1599 58.8761 68.7159C55.4321 65.2719 55.4321 59.6959 58.8761 56.2519ZM61.9921 65.4359C63.6321 67.0759 66.2561 67.0759 67.8961 65.4359C69.5361 63.7959 69.5361 61.1719 67.8961 59.5319C66.2561 57.8919 63.6321 57.8919 61.9921 59.5319C60.3521 61.1719 60.3521 63.7959 61.9921 65.4359Z" fill="white"/>
<path d="M46.248 13.94C46.248 12.136 44.772 10.824 43.132 10.824H4.75605C2.95205 10.824 1.64005 12.3 1.64005 13.94V45.592H46.248" fill="white"/>
</svg>
