<svg width="27" height="26" viewBox="0 0 27 26" fill="none" xmlns="http://www.w3.org/2000/svg">
<path d="M26.44 19.54V24.52C26.44 24.925 26.335 25.23 26.03 25.535C25.72 25.845 25.425 25.94 25.02 25.94C19.015 25.835 12.015 23.925 7.44 19.35C2.865 14.775 0.944996 7.765 0.839996 1.76C0.839996 1.355 0.939997 1.055 1.245 0.749997C1.55 0.444997 1.85 0.339996 2.26 0.339996H7.24L8.52 8.02L6.13 11.125C6.84 13.14 8.265 15.28 9.885 16.905C11.51 18.53 13.64 19.94 15.65 20.65L18.755 18.26L26.44 19.54Z" fill="white"/>
</svg>
