<svg width="64" height="64" viewBox="0 0 64 64" fill="none" xmlns="http://www.w3.org/2000/svg">
<path d="M2.23044 12.606L32.0001 3.00602L61.7698 12.606C62.2547 12.8 62.8365 12.509 63.0304 12.0242C63.2244 11.5394 62.9335 10.9575 62.4486 10.7636L32.388 1.06662C32.1941 0.969654 32.0001 0.969654 31.8062 1.06662L1.74559 10.7636C1.26074 10.9575 0.969836 11.4424 1.16378 12.0242C1.16378 12.509 1.74559 12.8 2.23044 12.606Z" fill="white"/>
<path d="M61.0909 56.1454H2.90912C1.84245 56.1454 0.969727 57.0181 0.969727 58.0848V60.9939C0.969727 62.0605 1.84245 62.9333 2.90912 62.9333H61.0909C62.1576 62.9333 63.0303 62.0605 63.0303 60.9939V58.0848C63.0303 57.0181 62.1576 56.1454 61.0909 56.1454Z" fill="white"/>
<path d="M59.6365 54.206V13.9636L32.0001 5.04236L4.36377 13.9636V54.206H12.6062V22.3999H51.3941V54.303H59.6365V54.206ZM23.1759 14.4484H21.2365C20.7516 14.4484 20.2668 13.9636 20.2668 13.4787C20.2668 12.8969 20.7516 12.509 21.2365 12.509H23.1759C23.7577 12.509 24.1456 12.8969 24.1456 13.4787C24.1456 14.0605 23.7577 14.4484 23.1759 14.4484ZM32.9698 14.4484H31.0304C30.5456 14.4484 30.0607 13.9636 30.0607 13.4787C30.0607 12.8969 30.5456 12.509 31.0304 12.509H32.9698C33.5516 12.509 33.9395 12.8969 33.9395 13.4787C33.9395 14.0605 33.5516 14.4484 32.9698 14.4484ZM42.7638 14.4484H40.8244C40.2426 14.4484 39.8547 13.9636 39.8547 13.4787C39.8547 12.8969 40.2426 12.509 40.8244 12.509H42.7638C43.3456 12.509 43.7335 12.8969 43.7335 13.4787C43.7335 14.0605 43.2486 14.4484 42.7638 14.4484Z" fill="white"/>
<path d="M47.5152 24.7273C47.5152 24.2424 47.1273 23.7576 46.5455 23.7576H17.4546C16.9697 23.7576 16.4849 24.2424 16.4849 24.7273V38.4C16.4849 38.9818 16.9697 39.3697 17.4546 39.3697H46.5455C47.1273 39.3697 47.5152 38.9818 47.5152 38.4V24.7273ZM26.1818 34.5212C26.1818 35.0061 25.794 35.4909 25.2121 35.4909C24.7273 35.4909 24.2424 35.0061 24.2424 34.5212V28.4121C24.2424 27.9273 24.7273 27.4424 25.2121 27.4424C25.794 27.4424 26.1818 27.9273 26.1818 28.4121V34.5212ZM32.9697 34.5212C32.9697 35.0061 32.5818 35.4909 32 35.4909C31.5152 35.4909 31.0303 35.0061 31.0303 34.5212V28.4121C31.0303 27.9273 31.5152 27.4424 32 27.4424C32.5818 27.4424 32.9697 27.9273 32.9697 28.4121V34.5212ZM39.7576 34.5212C39.7576 35.0061 39.3697 35.4909 38.7879 35.4909C38.303 35.4909 37.8182 35.0061 37.8182 34.5212V28.4121C37.8182 27.9273 38.303 27.4424 38.7879 27.4424C39.3697 27.4424 39.7576 27.9273 39.7576 28.4121V34.5212Z" fill="white"/>
<path d="M46.5455 40.0485H17.4546C16.9697 40.0485 16.4849 40.4363 16.4849 41.0182V54.303H47.5152V41.0182C47.5152 40.4363 47.1273 40.0485 46.5455 40.0485ZM26.1818 51.2969C26.1818 51.7818 25.794 52.2666 25.2121 52.2666C24.7273 52.2666 24.2424 51.7818 24.2424 51.2969V44.9939C24.2424 44.4121 24.7273 44.0242 25.2121 44.0242C25.794 44.0242 26.1818 44.4121 26.1818 44.9939V51.2969ZM32.9697 51.2969C32.9697 51.7818 32.5818 52.2666 32 52.2666C31.5152 52.2666 31.0303 51.7818 31.0303 51.2969V44.9939C31.0303 44.4121 31.5152 44.0242 32 44.0242C32.5818 44.0242 32.9697 44.4121 32.9697 44.9939V51.2969ZM39.7576 51.2969C39.7576 51.7818 39.3697 52.2666 38.7879 52.2666C38.303 52.2666 37.8182 51.7818 37.8182 51.2969V44.9939C37.8182 44.4121 38.303 44.0242 38.7879 44.0242C39.3697 44.0242 39.7576 44.4121 39.7576 44.9939V51.2969Z" fill="white"/>
</svg>
