<svg width="256" height="256" viewBox="0 0 256 256" fill="none" xmlns="http://www.w3.org/2000/svg">
<rect width="256" height="256" fill="white"/>
<path d="M98.2908 165.807C98.6122 162.786 96.3625 160.151 93.4702 159.251C86.9784 157.323 71.8737 154.302 64.3535 165.421C56.1263 177.634 73.1592 187.018 76.6943 188.432C80.0367 189.782 83.2504 194.217 67.0531 190.81C65.4462 190.424 63.9036 191.774 64.0964 193.445L64.4821 197.173C64.6749 199.166 65.7676 201.03 67.5673 201.93C75.8588 206.108 95.2056 203.729 98.7407 194.088C103.947 179.883 85.5643 178.341 84.6002 173.134C83.9574 169.278 89.6779 169.535 95.2699 169.085C97.1981 168.892 98.1622 167.542 98.2908 165.807Z" fill="#EBC53C"/>
<path d="M191.94 165.807C192.262 162.786 190.012 160.151 187.12 159.251C180.628 157.323 165.523 154.302 158.003 165.421C149.776 177.634 166.809 187.018 170.344 188.432C173.686 189.782 176.836 194.217 160.702 190.81C159.096 190.424 157.553 191.774 157.746 193.445L158.131 197.173C158.324 199.166 159.417 201.03 161.217 201.93C169.508 206.108 188.855 203.729 192.39 194.088C197.596 179.883 179.214 178.341 178.25 173.134C177.543 169.278 183.327 169.535 188.919 169.085C190.783 168.892 191.747 167.542 191.94 165.807Z" fill="#EBC53C"/>
<path fill-rule="evenodd" clip-rule="evenodd" d="M144.698 197.752C131.585 210.928 109.153 203.472 104.911 187.854C103.819 183.933 103.883 180.333 104.59 177.12C107.097 165.614 118.281 158.287 130.043 158.865C132.357 158.93 134.799 159.315 137.242 160.087C148.618 163.622 157.874 184.64 144.698 197.752ZM131.907 175.77C131.907 165.807 129.079 167.221 129.079 167.221C124.13 166.836 124.13 198.138 127.279 198.138C130.493 198.138 131.907 185.668 131.907 175.77Z" fill="#EBC53C"/>
<path fill-rule="evenodd" clip-rule="evenodd" d="M107.419 227.447C101.763 233.167 91.9928 229.953 90.1288 223.14C89.6789 221.469 89.7431 219.862 90.0002 218.512C91.0929 213.499 95.9778 210.285 101.056 210.542C102.084 210.606 103.112 210.735 104.205 211.121C109.154 212.663 113.139 221.726 107.419 227.447ZM101.891 217.87C101.891 213.563 100.67 214.206 100.67 214.206C98.4846 214.013 98.4846 227.639 99.8986 227.639C101.248 227.639 101.891 222.24 101.891 217.87Z" fill="#EBC53C"/>
<path d="M72.0672 227.254C72.0672 227.832 71.6173 228.282 71.1031 228.411C69.8819 228.604 67.6323 228.925 65.5755 228.539C65.0613 228.475 64.6113 227.961 64.6113 227.447V212.471C64.6113 211.892 65.1255 211.378 65.7683 211.378H72.3886C72.8385 211.378 73.2242 211.635 73.417 212.021L75.8595 217.356C75.988 217.677 76.438 217.677 76.5665 217.356L79.4589 211.699C79.6517 211.314 80.0374 211.057 80.4873 211.057L86.6577 211.185C87.3005 211.185 87.8147 211.699 87.8147 212.342V227.318C87.8147 227.961 87.2362 228.475 86.5934 228.475L81.7085 228.218C81.13 228.218 80.6158 227.768 80.6158 227.19L80.2945 223.397C80.2945 223.076 79.7803 222.948 79.6517 223.269L78.0448 226.161C77.6592 226.868 76.9522 227.318 76.2451 227.318C75.3453 227.383 74.574 226.933 74.1241 226.161C74.1241 226.161 73.0314 222.433 72.5814 222.626C72.003 222.883 72.0672 227.254 72.0672 227.254Z" fill="#EBC53C"/>
<path d="M112.175 211.057L118.86 211.249C119.31 211.249 119.76 211.635 119.824 212.085L121.367 218.77C121.367 219.091 121.816 219.091 121.881 218.77L123.488 211.892C123.552 211.442 124.002 211.057 124.516 211.057L130.172 211.249C130.815 211.249 131.265 211.828 131.136 212.471L127.28 227.19C127.216 227.64 126.83 227.961 126.38 227.961L115.967 228.282C115.517 228.347 115.068 228.025 114.939 227.575L111.147 212.342C111.018 211.699 111.532 211.057 112.175 211.057Z" fill="#EBC53C"/>
<path d="M135.828 211.057H142.898C143.541 211.057 143.991 211.507 143.991 212.085L143.798 227.768C143.798 228.282 143.348 228.797 142.77 228.797L136.599 228.925C136.021 228.925 135.506 228.475 135.506 227.961L134.799 212.149C134.735 211.571 135.249 211.057 135.828 211.057Z" fill="#EBC53C"/>
<path d="M148.748 210.607H154.34C154.661 210.607 155.047 210.799 155.176 211.121L158.647 216.584C158.839 216.97 159.354 216.777 159.354 216.391L159.096 211.571C159.032 210.992 159.546 210.478 160.189 210.478L165.845 210.799C166.424 210.799 166.874 211.249 166.874 211.828V226.932C166.874 227.511 166.424 227.961 165.845 227.961L160.125 228.154C159.803 228.154 159.546 228.025 159.289 227.768L155.818 223.654C155.561 223.333 155.111 223.526 155.111 223.912V227.318C155.111 227.897 154.661 228.347 154.083 228.347H148.748C148.17 228.347 147.72 227.897 147.72 227.318V211.635C147.72 211.057 148.17 210.607 148.748 210.607Z" fill="#EBC53C"/>
<path d="M169.959 215.684C172.209 205.143 185.899 210.542 188.342 211.635C188.663 211.764 188.792 212.085 188.727 212.406L188.02 215.62C187.956 216.07 187.506 216.263 187.12 216.198C185.256 215.62 180.371 214.592 180.05 219.284C179.922 220.569 180.05 221.533 180.371 222.176C181.143 224.104 183.971 223.397 183.842 221.405C183.778 219.991 184.871 218.834 186.221 218.705L187.956 218.641C189.37 218.512 190.591 219.605 190.656 221.019L190.848 225.84C190.913 227.254 189.82 228.411 188.47 228.475L186.799 228.604C185.449 228.668 184.228 227.639 184.164 226.29C184.164 226.29 183.65 225.904 183.392 226.675C183.135 227.447 165.91 234.774 169.959 215.684Z" fill="#EBC53C"/>
<path d="M184.228 129.589H58.9555C57.67 129.589 56.6416 128.497 56.6416 127.211V113.071C56.6416 111.785 57.67 110.757 58.9555 110.757H190.977C192.262 110.757 193.291 111.785 193.291 113.071V120.462C193.291 125.476 189.241 129.589 184.228 129.589Z" fill="#EBC53C"/>
<path d="M99.8342 129.589C99.8342 136.403 94.3708 141.866 87.5576 141.866C80.7445 141.866 75.2168 136.403 75.2168 129.589C75.2168 122.776 80.7445 117.249 87.5576 117.249C94.3708 117.249 99.8342 122.776 99.8342 129.589Z" fill="#282835"/>
<path d="M96.235 129.59C96.235 134.346 92.3785 138.267 87.5578 138.267C82.7372 138.267 78.8164 134.346 78.8164 129.59C78.8164 124.769 82.7372 120.848 87.5578 120.848C92.3785 120.848 96.235 124.769 96.235 129.59Z" fill="#FEFEFE"/>
<path d="M91.6716 129.589C91.6716 131.839 89.8076 133.703 87.558 133.703C85.244 133.703 83.4443 131.839 83.4443 129.589C83.4443 127.275 85.244 125.476 87.558 125.476C89.8076 125.476 91.6716 127.275 91.6716 129.589Z" fill="#282835"/>
<path d="M181.206 129.589C181.206 136.403 175.679 141.866 168.865 141.866C162.117 141.866 156.589 136.403 156.589 129.589C156.589 122.776 162.117 117.249 168.865 117.249C175.679 117.249 181.206 122.776 181.206 129.589Z" fill="#282835"/>
<path fill-rule="evenodd" clip-rule="evenodd" d="M143.992 106.965H56.3203V49.4384C56.3203 45.8389 58.4414 42.6252 61.7837 41.2111L97.0065 26.2993C99.1919 25.3352 101.763 25.3994 104.012 26.2993L138.593 41.2111C141.871 42.6252 143.992 45.8389 143.992 49.4384V106.965ZM59.7912 103.494H140.585V49.3741C140.585 47.1887 139.235 45.1962 137.243 44.3606L102.663 29.4488C101.249 28.8703 99.7061 28.8703 98.292 29.4488L63.1335 44.3606C61.0767 45.1962 59.7912 47.1887 59.7912 49.4384V103.494Z" fill="#EBC53C"/>
<path d="M177.736 129.59C177.736 134.346 173.815 138.267 168.995 138.267C164.174 138.267 160.317 134.346 160.317 129.59C160.317 124.769 164.174 120.848 168.995 120.848C173.815 120.848 177.736 124.769 177.736 129.59Z" fill="#FEFEFE"/>
<path d="M173.108 129.589C173.108 131.839 171.308 133.703 168.994 133.703C166.745 133.703 164.881 131.839 164.881 129.589C164.881 127.275 166.745 125.476 168.994 125.476C171.308 125.476 173.108 127.275 173.108 129.589Z" fill="#282835"/>
<path d="M187.248 107.286H147.526V51.8164C147.526 47.3172 151.19 43.7178 155.625 43.7178C176 43.7178 192.519 60.2365 192.519 80.5475V102.015C192.519 104.908 190.141 107.286 187.248 107.286Z" fill="#EBC53C"/>
<path d="M183.2 74.0555C183.2 82.0256 176.772 88.4532 168.802 88.4532C160.896 88.4532 154.469 82.0256 154.469 74.0555C154.469 66.1497 160.896 59.7222 168.802 59.7222C176.772 59.7222 183.2 66.1497 183.2 74.0555Z" fill="#FEFEFE"/>
<path fill-rule="evenodd" clip-rule="evenodd" d="M132.358 101.437H129.915C127.216 101.437 125.095 99.2516 125.095 96.552V77.0124C125.095 74.3128 127.216 72.1274 129.915 72.1274H132.358C135.057 72.1274 137.243 74.3128 137.243 77.0124V96.552C137.243 99.2516 135.057 101.437 132.358 101.437ZM129.915 73.8629C128.18 73.8629 126.766 75.2769 126.766 77.0124V96.552C126.766 98.2874 128.18 99.7015 129.915 99.7015H132.358C134.093 99.7015 135.507 98.2874 135.507 96.552V77.0124C135.507 75.2769 134.093 73.8629 132.358 73.8629H129.915Z" fill="#EBC53C"/>
<path fill-rule="evenodd" clip-rule="evenodd" d="M69.8176 101.566H67.3751C64.6756 101.566 62.4902 99.3802 62.4902 96.7449V77.141C62.4902 74.5057 64.6756 72.3203 67.3751 72.3203H69.8176C72.5172 72.3203 74.6382 74.5057 74.6382 77.141V96.7449C74.6382 99.3802 72.5172 101.566 69.8176 101.566ZM67.3751 74.0557C65.6397 74.0557 64.2257 75.4055 64.2257 77.141V96.7449C64.2257 98.4803 65.6397 99.8301 67.3751 99.8301H69.8176C71.553 99.8301 72.9671 98.4803 72.9671 96.7449V77.141C72.9671 75.4055 71.553 74.0557 69.8176 74.0557H67.3751Z" fill="#EBC53C"/>
<path fill-rule="evenodd" clip-rule="evenodd" d="M126.573 87.6178H72.9678V72.3845C72.9678 63.8359 80.1023 56.9585 88.908 56.9585H110.633C119.439 56.9585 126.573 63.8359 126.573 72.3845V87.6178ZM74.7675 85.8823H124.774V72.3845C124.774 64.8001 118.475 58.6939 110.633 58.6939H88.908C81.1307 58.6939 74.7675 64.8001 74.7675 72.3845V85.8823Z" fill="#EBC53C"/>
<path d="M123.617 101.244H119.953C119.439 101.244 119.054 100.858 119.054 100.409C119.054 99.8943 119.439 99.5087 119.953 99.5087H123.617C124.26 99.5087 124.774 98.9945 124.774 98.3517V87.6178H74.9608V98.3517C74.9608 98.9945 75.475 99.5087 76.1178 99.5087H79.4601C79.91 99.5087 80.36 99.8943 80.36 100.409C80.36 100.858 79.91 101.244 79.4601 101.244H76.1178C74.5109 101.244 73.1611 99.9586 73.1611 98.3517V85.8823H126.574V98.3517C126.574 99.9586 125.224 101.244 123.617 101.244Z" fill="#EBC53C"/>
<path d="M94.6925 42.561C94.6925 42.561 97.2635 43.5251 95.9137 49.3741C95.9137 49.3741 94.0497 43.0109 92.7642 43.7822C91.4787 44.6178 89.679 44.2964 89.0363 43.9108C88.3935 43.4608 86.8509 44.7463 85.5011 49.6955C85.5011 49.6955 83.38 45.6462 86.0796 41.9825C87.6865 39.6686 95.2709 39.4115 94.6925 42.561Z" fill="#EBC53C"/>
<path d="M100.156 64.0286C100.156 64.0286 103.306 63.7073 103.884 65.507C104.463 67.3067 103.884 69.5563 103.884 69.5563H103.177L101.763 74.3769L94.243 74.1841L95.0143 67.6923L92.8932 67.8209L92.7646 64.6714L98.5494 63.9644L98.6137 64.6071C98.6137 64.6071 99.1279 65.1856 100.028 64.7999L100.156 64.0286Z" fill="#EBC53C"/>
<path d="M101.377 95.9736C101.377 95.9736 104.591 85.1754 103.948 81.576C103.305 77.9123 99.5775 76.9482 99.5775 76.9482L91.8644 74.6343L90.5146 82.0259C90.5146 82.0259 96.0423 81.8331 97.5206 82.6687C98.9347 83.5685 97.2635 97.5162 97.2635 97.5162C97.2635 97.5162 100.284 99.7016 101.377 95.9736Z" fill="#B2E2F2"/>
<path d="M119.245 79.0689C119.245 79.0689 119.631 83.4396 113.267 82.2827C113.267 82.2827 116.545 93.7879 115.453 97.3231C115.453 97.3231 113.974 98.8657 112.689 97.1945C111.403 95.5234 105.554 80.1616 107.226 77.2049C108.575 74.7625 117.96 77.5906 119.245 79.0689Z" fill="#B2E2F2"/>
<path d="M105.813 76.6265C105.813 76.6265 101.699 75.7266 102.535 81.5757C103.242 86.6534 106.456 95.5876 107.163 97.3873C107.227 97.6444 107.484 97.773 107.741 97.8373C108.191 97.9016 108.834 97.9016 109.412 97.5802C109.669 97.4516 109.862 97.1945 109.862 96.8732L109.284 87.5533C109.284 87.5533 106.456 80.7401 107.227 77.205L105.813 76.6265Z" fill="#B2E2F2"/>
<path d="M85.3086 56.8941C85.3086 56.8941 87.6225 59.2723 90.3221 59.0795C92.8931 58.8867 95.3355 57.4726 95.3355 57.4726C95.3355 57.4726 92.8288 56.2514 92.7002 54.7088C96.4282 53.2304 95.3998 48.7312 95.3998 48.7312C95.3998 48.7312 95.2712 43.9105 93.1502 43.7177C91.9932 43.5892 93.0859 44.939 89.0366 43.9106C89.0366 43.9106 86.1442 42.7536 85.9513 49.3739C85.9513 49.3097 85.3086 53.2947 88.6509 55.0944C88.6509 55.0944 87.4939 56.7013 85.3086 56.8941Z" fill="#FEFEFE"/>
<path fill-rule="evenodd" clip-rule="evenodd" d="M90.0009 59.5297C87.3014 59.5297 85.0518 57.2801 84.9875 57.1515L84.3447 56.5088L85.2446 56.4445C86.5944 56.3159 87.4942 55.6089 88.0084 55.159C85.2446 53.4235 85.4374 50.2098 85.5017 49.567C85.5017 49.4813 85.5231 49.3956 85.566 49.3099C85.6302 46.3533 86.273 44.4893 87.4299 43.718C88.3298 43.1395 89.1654 43.4609 89.1654 43.4609C91.6078 44.1036 91.9292 43.8465 92.1863 43.6537C92.3791 43.4609 92.6362 43.2681 93.2147 43.2681C95.5929 43.5252 95.85 48.2173 95.85 48.7315C95.85 48.7315 96.8141 53.2307 93.1504 54.9661C93.5361 55.9303 94.9501 56.8301 95.4643 57.0872L96.2356 57.4729L95.5286 57.8585C95.4 57.9228 92.9576 59.2726 90.3866 59.5297C90.258 59.5297 90.1295 59.5297 90.0009 59.5297ZM86.273 57.1515C87.1086 57.7943 88.6512 58.7584 90.3223 58.6298C91.9292 58.5013 93.5361 57.8585 94.3716 57.4729C93.6003 56.9587 92.3791 55.9945 92.2506 54.7733L92.1863 54.4519L92.5077 54.3234C95.85 52.9736 95.0144 48.86 95.0144 48.7957C94.9501 47.5745 94.5002 44.2965 93.0861 44.1679C92.8933 44.1036 92.8933 44.1679 92.7648 44.2965C92.2506 44.7464 91.6078 45.0035 88.9083 44.2965C88.844 44.2965 88.3941 44.1036 87.8799 44.4893C87.2371 44.8749 86.5301 46.0962 86.4015 49.3742L86.3373 49.7599C86.273 50.5954 86.273 53.3593 88.844 54.709L89.2939 54.9019L88.9725 55.2875C88.9725 55.3518 88.0084 56.7016 86.273 57.1515Z" fill="#EBC53C"/>
<path d="M112.239 48.0883C107.933 47.5741 107.226 52.1376 107.226 52.1376C106.776 56.0584 108.704 57.7938 110.054 58.5651L110.118 59.6578L108.833 59.7221L109.99 61.7789C110.44 62.2931 111.661 62.2288 112.239 61.8431L114.296 59.5935L112.753 59.7863V58.6294C112.753 58.6294 115.517 57.5367 115.967 55.3513C116.546 52.5232 114.617 48.3454 112.239 48.0883Z" fill="#FEFEFE"/>
<path d="M112.433 49.5026C111.855 50.2739 110.505 51.6236 107.934 52.0093C107.484 52.0736 107.227 52.5235 107.227 52.9734C107.099 54.3232 107.356 56.8299 110.119 58.6296V59.7223C110.119 59.7223 107.163 59.5295 106.006 61.6506C106.006 61.6506 103.113 48.1528 110.827 46.096C118.604 43.9749 119.504 55.1588 119.054 62.6147C119.054 62.6147 118.54 59.0796 112.755 59.7866V58.6296C112.755 58.6296 115.39 57.4727 115.904 54.1947C116.033 53.6805 115.776 53.2305 115.39 52.9734C114.554 52.4592 113.14 51.3023 112.819 49.5668C112.819 49.374 112.562 49.3097 112.433 49.5026Z" fill="#EBC53C"/>
<path d="M101.762 74.2484L94.0488 74.1199C87.9427 73.927 89.6781 77.2693 89.6781 77.2693C90.7708 77.8478 89.2925 81.0616 89.9352 81.9614C90.9636 83.4397 91.4778 79.2619 91.4778 79.2619L92.6991 76.5623L93.5346 83.3755L92.1849 83.4397L91.992 84.7895H95.2058C95.5914 84.7895 95.9128 84.4682 95.9128 84.0825C95.9128 82.0257 95.5915 76.8194 95.5915 76.8194C102.533 78.1049 101.762 74.2484 101.762 74.2484Z" fill="#EBC53C"/>
<path d="M103.756 69.4923C103.756 69.4923 102.856 73.2845 98.5492 74.8271C97.8422 75.0842 97.328 75.8555 97.1352 76.3054C96.4924 77.6552 95.6568 77.9766 94.9498 77.7195C93.7929 77.3339 94.5642 75.6627 95.8497 74.7628C96.9423 74.0558 100.22 71.4205 100.413 69.1709L103.756 69.4923Z" fill="#FEFEFE"/>
<path d="M101.121 95.9092C101.121 95.9092 102.085 95.9092 102.47 96.5519C102.92 97.1947 104.784 98.4159 105.748 98.4159C106.713 98.4159 108.641 98.0945 108.255 100.601C108.255 100.601 102.02 101.501 96.3643 100.858L97.2641 97.3232C97.2641 97.3232 97.5212 96.6805 98.4853 97.3875C98.4853 97.3875 100.735 98.2874 101.121 95.9092Z" fill="#EBC53C"/>
<path d="M89.6798 96.2949C89.6798 96.2949 90.6439 96.2949 91.0939 96.9377C91.4795 97.5804 92.5079 98.4803 93.472 98.4803C94.4362 98.4803 96.2359 98.3517 95.8502 100.858C95.8502 100.858 90.1297 101.501 84.6663 100.987C84.345 100.923 84.1521 100.666 84.2164 100.409L84.9877 97.3876C84.9877 97.3876 85.2448 96.7448 86.2089 97.4519C86.2089 97.4519 89.2942 98.6088 89.6798 96.2949Z" fill="#EBC53C"/>
<path d="M106.905 97.8375C106.905 97.8375 107.034 98.4802 105.877 99.2516C105.041 99.7658 105.813 100.794 105.813 100.794C105.813 100.794 107.613 100.923 109.476 100.601C111.083 100.344 110.569 97.8375 109.862 96.8091L109.091 97.7732C109.091 97.7732 107.677 97.1947 106.905 97.8375Z" fill="#EBC53C"/>
<path d="M112.69 97.6446C112.69 97.6446 112.882 98.2874 111.661 98.9944C110.89 99.5086 111.661 100.537 111.661 100.537C111.661 100.537 113.397 100.666 115.325 100.344C116.867 100.087 116.418 97.5803 115.646 96.6162L114.939 97.5803C114.939 97.5803 113.461 96.9376 112.69 97.6446Z" fill="#EBC53C"/>
<path d="M108.962 59.7868L109.861 61.3295C110.825 62.4221 111.79 61.8437 112.304 61.3937L114.168 59.6583C114.168 59.6583 119.31 57.9872 119.888 65.7644C119.888 65.7644 118.024 66.4715 117.51 67.3713C117.06 68.2069 115.132 69.9423 117.317 72.7704C119.503 75.5985 119.246 79.0694 119.246 79.0694C119.246 79.0694 112.24 74.6987 107.226 77.2054L104.012 76.884C104.012 76.884 107.869 71.6778 106.648 67.8855L103.691 68.3355L102.47 64.8646C102.47 64.8646 105.491 60.1082 108.962 59.7868Z" fill="#EBC53C"/>
<path d="M119.759 65.5713C119.759 65.5713 119.952 72.7701 113.332 74.7626C112.882 74.8912 108.704 76.1767 108.447 76.4981C107.419 77.7836 106.776 78.4263 106.133 78.2335C105.105 77.8479 106.133 75.2126 108.447 73.7985C109.411 73.22 115.26 71.4846 115.453 66.214L119.759 65.5713Z" fill="#FEFEFE"/>
<path d="M115.133 74.9553L114.683 74.2482C120.339 71.9343 118.796 63.9 118.796 63.8357L119.503 63.3857C119.503 63.5143 121.946 72.32 115.133 74.9553Z" fill="#EBC53C"/>
<path d="M99.9628 75.6627L99.5771 74.6985C102.791 73.3488 103.112 67.8211 103.112 67.7568L104.141 67.8211C104.141 68.0782 103.755 74.0558 99.9628 75.6627Z" fill="#EBC53C"/>
<path d="M97.3276 58.051C96.7491 57.4083 96.0421 57.0869 95.3351 56.8941C95.2494 56.8941 95.1637 56.8941 95.078 56.8941C94.1781 56.7655 93.4711 56.8941 93.4711 56.8941C92.8926 58.1153 92.1856 59.1437 89.8717 59.1437C87.4935 59.1437 86.7865 56.4441 86.7865 56.4441C86.7865 56.4441 84.2798 55.8657 81.3874 57.7939C78.8806 59.4008 77.4666 62.2932 77.338 65.2498C77.0809 69.8134 76.8881 77.5264 77.8522 77.7835C80.6803 78.5548 90.7073 77.3978 91.4786 77.2693C92.1856 77.0765 95.5279 73.7984 95.8493 72.1273C96.1707 70.5204 94.6923 65.4427 94.9494 64.5428C94.9494 64.4143 95.3994 66.0854 95.5279 65.764L97.9704 64.0929L99.7701 64.9927L100.22 60.3006C100.22 60.3006 98.8059 59.0794 97.3276 58.051Z" fill="#EBC53C"/>
<path d="M89.8075 96.2307L92.3785 82.6686C92.3785 82.6686 92.6356 77.848 88.4577 76.8196C88.1363 76.691 78.8164 78.3622 77.4023 77.4624C77.4023 77.4624 77.9808 82.0902 86.1438 84.147C88.3291 84.7255 84.9868 97.6448 84.9868 97.6448C84.9868 97.6448 85.0511 97.5805 86.7222 97.9019C89.4218 98.3518 89.3575 97.3234 89.8075 96.2307Z" fill="#B2E2F2"/>
<path d="M77.4671 66.6639C77.4671 66.6639 76.3744 70.3276 80.938 74.3126C83.5732 76.5623 90.065 78.9405 91.0292 78.362C92.5075 77.4621 89.2937 75.5339 87.6226 74.3769C86.2085 73.4128 81.3236 70.8418 80.8737 66.5996L77.4671 66.6639Z" fill="#FEFEFE"/>
<path fill-rule="evenodd" clip-rule="evenodd" d="M90.5791 78.5549C88.6508 78.5549 83.1874 76.3696 80.8735 74.377C76.31 70.392 77.4027 66.664 77.4027 66.664V66.5997L77.4669 66.5355L80.9378 66.4712V66.5355C81.3877 70.3277 85.2442 72.7701 87.1082 73.9271C87.3225 74.0556 87.5153 74.1842 87.6867 74.3127C87.8152 74.3984 87.9652 74.4841 88.1366 74.5698C89.6149 75.5982 91.5432 76.8838 91.5432 77.7836C91.5432 78.0407 91.3932 78.255 91.0933 78.4264C90.9647 78.5121 90.7933 78.5549 90.5791 78.5549ZM77.5955 66.7926C77.4669 67.3068 76.8885 70.6491 81.0021 74.1842C83.7016 76.5624 90.0649 78.7477 91.029 78.2335C91.2004 78.105 91.3075 77.955 91.3504 77.7836C91.3504 77.0123 89.3578 75.6625 88.0081 74.7627C87.8367 74.677 87.6867 74.5699 87.5581 74.4413C87.3867 74.3556 87.1939 74.2485 86.9797 74.1199C85.1157 72.8987 81.2592 70.4562 80.745 66.664L77.5955 66.7926Z" fill="#EBC53C"/>
<path d="M101.185 52.2661C98.1638 51.559 94.1787 54.1943 95.6571 57.4081C95.6571 57.4081 96.8783 57.9223 98.4852 56.3797L98.6137 57.2795C98.6137 57.2795 102.213 56.5082 102.92 56.0583L103.627 60.2362C103.627 60.2362 104.784 58.8864 105.041 57.4724C105.298 55.6727 104.527 53.1016 101.185 52.2661Z" fill="#EBC53C"/>
<path d="M103.626 59.658C103.626 59.658 103.562 62.6147 100.348 63.3217L100.027 64.8C100.027 64.8 99.1915 65.3785 98.613 64.6072V63.3217C98.613 63.3217 94.4994 62.3576 95.6563 57.4084C95.6563 57.4084 97.5203 57.6012 98.613 56.0586V57.2798C98.613 57.2798 102.084 56.6371 102.919 56.0586L103.626 59.658Z" fill="#FEFEFE"/>
<path fill-rule="evenodd" clip-rule="evenodd" d="M99.3854 65.4429C98.9998 65.4429 98.6141 65.2501 98.2927 64.8645L98.2284 64.8002V63.6432C97.2 63.2576 94.1791 61.715 95.2075 57.3443L95.2718 56.9586L95.6574 57.0229C95.7217 57.0229 97.3286 57.1514 98.2927 55.8017L99.1283 54.709L99.064 56.7658C100.35 56.4444 102.214 56.0588 102.728 55.6731L103.242 55.2875L104.077 59.6582C104.077 59.7225 103.949 62.8077 100.671 63.7075L100.414 65.0573L100.285 65.1216C100.028 65.3144 99.7068 65.4429 99.3854 65.4429ZM99.064 64.4788C99.2569 64.6074 99.514 64.5431 99.6425 64.4788L99.9639 63.0005L100.221 62.9362C102.921 62.2935 103.178 60.0438 103.178 59.7225L102.599 56.7015C101.378 57.2157 98.9998 57.6014 98.6784 57.6656L98.1642 57.7942V57.1515C97.3929 57.7299 96.493 57.8585 95.9788 57.8585C95.2075 62.0363 98.6141 62.8719 98.7427 62.9362L99.064 63.0005V64.4788Z" fill="#EBC53C"/>
<path d="M96.2351 67.8211C96.2351 67.8211 95.7209 70.9063 92.1858 72.1918C91.4788 72.3846 91.286 73.2202 91.0289 73.6059C90.3861 74.6985 89.6791 75.2127 89.1649 74.9556C88.3293 74.57 88.8435 73.5416 89.6791 72.4489C90.5147 71.4848 94.0498 69.7494 94.1783 67.7568L96.2351 67.8211Z" fill="#FEFEFE"/>
<path d="M104.141 57.8584L106.327 58.4369L106.648 61.2007L104.72 63.5789L101.892 66.2142L100.413 65.0572L100.156 63.5146L101.892 62.8719L103.241 61.3293L103.691 59.3367L104.141 57.8584Z" fill="#EBC53C"/>
<path d="M198.69 86.075C200.04 97.1303 190.912 108.764 187.313 109.214C183.649 109.6 175.229 102.208 173.622 99.7013C172.208 95.0092 171.823 90.1243 172.401 85.2394C172.723 81.3829 174.587 81.7685 177.543 80.8687C179 80.3116 180.393 79.6474 181.721 78.8761C184.613 76.9479 187.827 75.5338 191.17 74.6982C193.805 74.9553 197.854 79.6474 198.69 86.075Z" fill="#B2E2F2"/>
<path d="M181.4 93.7239C181.143 93.5311 156.911 76.691 146.562 74.827L146.755 72.8345C157.361 74.7627 181.014 91.2172 182.042 91.9242L181.335 92.5027L181.4 93.7239Z" fill="#B2E2F2"/>
<path d="M178.893 97.9658C168.223 97.9658 157.489 98.5442 146.82 99.5726L146.562 98.03C157.361 96.8731 168.223 96.3589 179.086 96.3589L178.893 97.9658Z" fill="#B2E2F2"/>
<path d="M175.616 82.4759C175.744 82.4117 175.873 82.4117 176.001 82.4759C176.13 82.6045 176.194 82.733 176.13 82.8616C176.13 82.9901 176.066 83.1187 175.937 83.183C175.637 83.3115 175.337 83.4401 175.037 83.5686C174.587 83.8257 174.266 84.2756 174.33 84.7256V85.1112C174.33 85.3683 174.202 85.5611 174.009 85.5611C173.752 85.5611 173.559 85.3683 173.559 85.1755V84.7899C173.495 84.0185 173.944 83.2472 174.651 82.8616C174.994 82.733 175.316 82.6045 175.616 82.4759Z" fill="#FEFEFE"/>
<path d="M179.6 80.9332C179.729 80.8689 179.922 80.9975 179.986 81.1903C180.05 81.3831 179.922 81.6402 179.793 81.7045C179.022 81.9616 178.251 82.283 177.479 82.6686C177.351 82.6686 177.222 82.6686 177.158 82.6044C177.094 82.4758 177.029 82.3473 177.029 82.2187C177.029 82.0902 177.094 81.9616 177.222 81.9616C177.993 81.576 178.786 81.2332 179.6 80.9332Z" fill="#FEFEFE"/>
<path d="M183.2 79.1979C183.329 79.1337 183.521 79.1979 183.586 79.3908C183.65 79.5836 183.586 79.8407 183.457 79.905C182.686 80.2478 181.936 80.612 181.208 80.9976C181.079 81.0619 180.95 81.0619 180.886 80.9976C180.758 80.9334 180.693 80.8048 180.693 80.612C180.758 80.4834 180.822 80.4192 180.886 80.3549C181.657 79.9264 182.429 79.5407 183.2 79.1979Z" fill="#FEFEFE"/>
<path d="M186.734 77.5265C186.863 77.4622 187.055 77.5908 187.12 77.7836C187.184 77.9764 187.055 78.1692 186.927 78.2335C186.156 78.5335 185.384 78.8763 184.613 79.2619C184.549 79.3262 184.42 79.3262 184.292 79.1976C184.227 79.1334 184.163 79.0048 184.163 78.8763C184.163 78.7477 184.292 78.6192 184.356 78.5549C185.127 78.1692 185.92 77.8264 186.734 77.5265Z" fill="#FEFEFE"/>
<path d="M190.398 75.9196C190.591 75.8553 190.784 75.9838 190.784 76.1766C190.848 76.3695 190.784 76.5623 190.591 76.6266C189.82 76.8837 189.048 77.2051 188.277 77.5907C188.213 77.655 188.084 77.5907 187.956 77.5264C187.891 77.4622 187.827 77.2693 187.827 77.1408C187.891 77.0122 187.956 76.8837 188.02 76.8837C188.834 76.498 189.627 76.1767 190.398 75.9196Z" fill="#FEFEFE"/>
</svg>
