<svg width="12" height="12" viewBox="0 0 12 12" fill="none" xmlns="http://www.w3.org/2000/svg">
<g clip-path="url(#clip0_401_2601)">
<path fill-rule="evenodd" clip-rule="evenodd" d="M11.9745 4.60927C11.906 4.39962 11.7119 4.25845 11.491 4.25845H7.66578L6.48414 0.620324V0.619624C6.41496 0.409974 6.22084 0.268799 5.9999 0.268799C5.77967 0.268799 5.58484 0.409974 5.51637 0.62033L4.33402 4.25845H0.508844C0.287906 4.25845 0.0937812 4.39962 0.0253125 4.60927C-0.0431563 4.81892 0.03025 5.04762 0.20955 5.17821L3.30484 7.42715L2.12249 11.066C2.05402 11.2763 2.12955 11.505 2.30884 11.6342C2.39778 11.6984 2.50226 11.731 2.60672 11.731C2.71119 11.731 2.81567 11.6984 2.90531 11.6335L5.9999 9.38527L9.09378 11.6335C9.27237 11.7634 9.51307 11.7634 9.69167 11.6342C9.87096 11.505 9.94578 11.2763 9.87731 11.0653L8.69496 7.42715L11.791 5.17821C11.9695 5.04762 12.0437 4.81892 11.9745 4.60927" fill="#FFE533"/>
</g>
<defs>
<clipPath id="clip0_401_2601">
<rect width="12" height="12" fill="white"/>
</clipPath>
</defs>
</svg>
