<svg width="32" height="32" viewBox="0 0 32 32" fill="none" xmlns="http://www.w3.org/2000/svg">
<rect width="32" height="32" fill="white"/>
<path d="M12.2862 20.7262C12.3264 20.3486 12.0452 20.0192 11.6836 19.9067C10.8722 19.6657 8.98409 19.2881 8.04407 20.678C7.01566 22.2046 9.14478 23.3776 9.58667 23.5543C10.0045 23.7231 10.4062 24.2774 8.38151 23.8516C8.18065 23.8034 7.98783 23.9721 8.01193 24.181L8.06014 24.647C8.08424 24.8961 8.22082 25.1291 8.44579 25.2416C9.48222 25.7638 11.9006 25.4665 12.3425 24.2614C12.9933 22.4858 10.6954 22.2929 10.5749 21.6422C10.4946 21.1601 11.2096 21.1922 11.9086 21.136C12.1496 21.1119 12.2702 20.9432 12.2862 20.7262Z" fill="#EBC53C"/>
<path d="M23.9923 20.7262C24.0325 20.3486 23.7512 20.0192 23.3897 19.9067C22.5782 19.6657 20.6901 19.2881 19.7501 20.678C18.7217 22.2046 20.8508 23.3776 21.2927 23.5543C21.7105 23.7231 22.1042 24.2774 20.0876 23.8516C19.8867 23.8034 19.6939 23.9721 19.718 24.181L19.7662 24.647C19.7903 24.8961 19.9269 25.1291 20.1518 25.2416C21.1883 25.7638 23.6066 25.4665 24.0485 24.2614C24.6993 22.4858 22.4015 22.2929 22.281 21.6422C22.1926 21.1601 22.9157 21.1922 23.6147 21.136C23.8477 21.1119 23.9682 20.9432 23.9923 20.7262Z" fill="#EBC53C"/>
<path fill-rule="evenodd" clip-rule="evenodd" d="M18.087 24.7193C16.4479 26.3663 13.6439 25.4344 13.1137 23.482C12.9771 22.9919 12.9851 22.542 13.0735 22.1403C13.3868 20.7021 14.7848 19.7862 16.2551 19.8585C16.5444 19.8665 16.8497 19.9147 17.155 20.0111C18.5771 20.453 19.734 23.0803 18.087 24.7193ZM16.4881 21.9715C16.4881 20.7262 16.1346 20.903 16.1346 20.903C15.516 20.8547 15.516 24.7675 15.9096 24.7675C16.3114 24.7675 16.4881 23.2088 16.4881 21.9715Z" fill="#EBC53C"/>
<path fill-rule="evenodd" clip-rule="evenodd" d="M13.4271 28.4312C12.7201 29.1463 11.4989 28.7446 11.2659 27.8929C11.2096 27.684 11.2176 27.4832 11.2498 27.3145C11.3864 26.6878 11.997 26.2861 12.6317 26.3182C12.7603 26.3262 12.8888 26.3423 13.0254 26.3905C13.644 26.5833 14.1422 27.7162 13.4271 28.4312ZM12.7361 27.2341C12.7361 26.6958 12.5835 26.7762 12.5835 26.7762C12.3103 26.7521 12.3103 28.4553 12.4871 28.4553C12.6558 28.4553 12.7361 27.7805 12.7361 27.2341Z" fill="#EBC53C"/>
<path d="M9.00816 28.407C9.00816 28.4793 8.95192 28.5355 8.88765 28.5516C8.73499 28.5757 8.45379 28.6159 8.19669 28.5677C8.13241 28.5596 8.07617 28.4954 8.07617 28.4311V26.5591C8.07617 26.4868 8.14045 26.4225 8.22079 26.4225H9.04833C9.10457 26.4225 9.15278 26.4546 9.17688 26.5028L9.48219 27.1697C9.49826 27.2099 9.5545 27.2099 9.57057 27.1697L9.93212 26.4627C9.95622 26.4145 10.0044 26.3823 10.0607 26.3823L10.832 26.3984C10.9123 26.3984 10.9766 26.4627 10.9766 26.543V28.415C10.9766 28.4954 10.9043 28.5596 10.8239 28.5596L10.2133 28.5275C10.141 28.5275 10.0767 28.4713 10.0767 28.399L10.0366 27.9249C10.0366 27.8848 9.97229 27.8687 9.95622 27.9089L9.75536 28.2704C9.70715 28.3588 9.61878 28.415 9.5304 28.415C9.41792 28.4231 9.3215 28.3668 9.26526 28.2704C9.26526 28.2704 9.12868 27.8044 9.07244 27.8285C9.00013 27.8607 9.00816 28.407 9.00816 28.407Z" fill="#EBC53C"/>
<path d="M14.0217 26.3823L14.8572 26.4064C14.9135 26.4064 14.9697 26.4546 14.9777 26.5109L15.1706 27.3465C15.1706 27.3866 15.2268 27.3866 15.2348 27.3465L15.4357 26.4868C15.4437 26.4305 15.5 26.3823 15.5643 26.3823L16.2713 26.4064C16.3516 26.4064 16.4079 26.4787 16.3918 26.5591L15.9097 28.399C15.9017 28.4552 15.8535 28.4954 15.7973 28.4954L14.4957 28.5355C14.4394 28.5436 14.3832 28.5034 14.3671 28.4472L13.8931 26.543C13.877 26.4627 13.9413 26.3823 14.0217 26.3823Z" fill="#EBC53C"/>
<path d="M16.9788 26.3823H17.8626C17.943 26.3823 17.9992 26.4386 17.9992 26.5109L17.9751 28.4713C17.9751 28.5355 17.9189 28.5998 17.8466 28.5998L17.0753 28.6159C17.0029 28.6159 16.9387 28.5596 16.9387 28.4954L16.8503 26.5189C16.8423 26.4466 16.9065 26.3823 16.9788 26.3823Z" fill="#EBC53C"/>
<path d="M18.5934 26.3261H19.2924C19.3326 26.3261 19.3808 26.3502 19.3968 26.3904L19.8307 27.0733C19.8548 27.1215 19.9191 27.0974 19.9191 27.0492L19.8869 26.4466C19.8789 26.3743 19.9432 26.3101 20.0235 26.3101L20.7305 26.3502C20.8029 26.3502 20.8591 26.4065 20.8591 26.4788V28.3669C20.8591 28.4392 20.8029 28.4954 20.7305 28.4954L20.0155 28.5195C19.9753 28.5195 19.9432 28.5035 19.911 28.4713L19.4772 27.9571C19.445 27.9169 19.3888 27.941 19.3888 27.9892V28.4151C19.3888 28.4874 19.3326 28.5436 19.2602 28.5436H18.5934C18.5211 28.5436 18.4648 28.4874 18.4648 28.4151V26.4547C18.4648 26.3824 18.5211 26.3261 18.5934 26.3261Z" fill="#EBC53C"/>
<path d="M21.245 26.9608C21.5262 25.6432 23.2375 26.3181 23.5428 26.4547C23.583 26.4707 23.5991 26.5109 23.591 26.5511L23.5026 26.9528C23.4946 27.009 23.4384 27.0331 23.3902 27.0251C23.1572 26.9528 22.5466 26.8243 22.5064 27.4108C22.4903 27.5715 22.5064 27.692 22.5466 27.7723C22.643 28.0133 22.9965 27.925 22.9804 27.6759C22.9724 27.4991 23.109 27.3545 23.2777 27.3385L23.4946 27.3304C23.6714 27.3144 23.824 27.4509 23.8321 27.6277L23.8562 28.2303C23.8642 28.407 23.7276 28.5516 23.5589 28.5597L23.35 28.5758C23.1813 28.5838 23.0286 28.4552 23.0206 28.2865C23.0206 28.2865 22.9563 28.2383 22.9242 28.3347C22.892 28.4311 20.7388 29.3471 21.245 26.9608Z" fill="#EBC53C"/>
<path d="M23.0284 16.1988H7.36932C7.20863 16.1988 7.08008 16.0622 7.08008 15.9015V14.134C7.08008 13.9733 7.20863 13.8447 7.36932 13.8447H23.872C24.0327 13.8447 24.1612 13.9733 24.1612 14.134V15.0579C24.1612 15.6846 23.655 16.1988 23.0284 16.1988Z" fill="#EBC53C"/>
<path d="M12.4795 16.1989C12.4795 17.0505 11.7966 17.7334 10.9449 17.7334C10.0933 17.7334 9.40234 17.0505 9.40234 16.1989C9.40234 15.3472 10.0933 14.6562 10.9449 14.6562C11.7966 14.6562 12.4795 15.3472 12.4795 16.1989Z" fill="#282835"/>
<path d="M12.0289 16.1986C12.0289 16.7932 11.5468 17.2833 10.9442 17.2833C10.3417 17.2833 9.85156 16.7932 9.85156 16.1986C9.85156 15.5961 10.3417 15.106 10.9442 15.106C11.5468 15.106 12.0289 15.5961 12.0289 16.1986Z" fill="#FEFEFE"/>
<path d="M11.4591 16.1988C11.4591 16.48 11.2261 16.713 10.9449 16.713C10.6556 16.713 10.4307 16.48 10.4307 16.1988C10.4307 15.9095 10.6556 15.6846 10.9449 15.6846C11.2261 15.6846 11.4591 15.9095 11.4591 16.1988Z" fill="#282835"/>
<path d="M22.6504 16.1989C22.6504 17.0505 21.9595 17.7334 21.1078 17.7334C20.2642 17.7334 19.5732 17.0505 19.5732 16.1989C19.5732 15.3472 20.2642 14.6562 21.1078 14.6562C21.9595 14.6562 22.6504 15.3472 22.6504 16.1989Z" fill="#282835"/>
<path fill-rule="evenodd" clip-rule="evenodd" d="M17.999 13.3708H7.04004V6.17998C7.04004 5.73005 7.30517 5.32833 7.72296 5.15157L12.1258 3.2876C12.399 3.16708 12.7204 3.17511 13.0016 3.2876L17.3241 5.15157C17.7338 5.32833 17.999 5.73005 17.999 6.17998V13.3708ZM7.4739 12.9369H17.5731V6.17194C17.5731 5.89877 17.4044 5.64971 17.1553 5.54526L12.8328 3.68128C12.6561 3.60897 12.4633 3.60897 12.2865 3.68128L7.89169 5.54526C7.63458 5.64971 7.4739 5.89877 7.4739 6.17998V12.9369Z" fill="#EBC53C"/>
<path d="M22.2174 16.1986C22.2174 16.7932 21.7273 17.2833 21.1247 17.2833C20.5221 17.2833 20.04 16.7932 20.04 16.1986C20.04 15.5961 20.5221 15.106 21.1247 15.106C21.7273 15.106 22.2174 15.5961 22.2174 16.1986Z" fill="#FEFEFE"/>
<path d="M21.6388 16.1988C21.6388 16.48 21.4138 16.713 21.1246 16.713C20.8433 16.713 20.6104 16.48 20.6104 16.1988C20.6104 15.9095 20.8433 15.6846 21.1246 15.6846C21.4138 15.6846 21.6388 15.9095 21.6388 16.1988Z" fill="#282835"/>
<path d="M23.4057 13.4109H18.4404V6.47718C18.4404 5.91477 18.8984 5.46484 19.4528 5.46484C21.9997 5.46484 24.0645 7.52968 24.0645 10.0686V12.752C24.0645 13.1136 23.7672 13.4109 23.4057 13.4109Z" fill="#EBC53C"/>
<path d="M22.9 9.257C22.9 10.2533 22.0965 11.0567 21.1003 11.0567C20.112 11.0567 19.3086 10.2533 19.3086 9.257C19.3086 8.26877 20.112 7.46533 21.1003 7.46533C22.0965 7.46533 22.9 8.26877 22.9 9.257Z" fill="#FEFEFE"/>
<path fill-rule="evenodd" clip-rule="evenodd" d="M16.5446 12.6798H16.2393C15.9019 12.6798 15.6367 12.4066 15.6367 12.0692V9.62673C15.6367 9.28928 15.9019 9.01611 16.2393 9.01611H16.5446C16.882 9.01611 17.1552 9.28928 17.1552 9.62673V12.0692C17.1552 12.4066 16.882 12.6798 16.5446 12.6798ZM16.2393 9.23304C16.0224 9.23304 15.8456 9.4098 15.8456 9.62673V12.0692C15.8456 12.2861 16.0224 12.4629 16.2393 12.4629H16.5446C16.7615 12.4629 16.9383 12.2861 16.9383 12.0692V9.62673C16.9383 9.4098 16.7615 9.23304 16.5446 9.23304H16.2393Z" fill="#EBC53C"/>
<path fill-rule="evenodd" clip-rule="evenodd" d="M8.72744 12.6957H8.42214C8.08469 12.6957 7.81152 12.4225 7.81152 12.0931V9.64262C7.81152 9.31321 8.08469 9.04004 8.42214 9.04004H8.72744C9.06489 9.04004 9.33002 9.31321 9.33002 9.64262V12.0931C9.33002 12.4225 9.06489 12.6957 8.72744 12.6957ZM8.42214 9.25697C8.20521 9.25697 8.02845 9.42569 8.02845 9.64262V12.0931C8.02845 12.31 8.20521 12.4788 8.42214 12.4788H8.72744C8.94437 12.4788 9.12113 12.31 9.12113 12.0931V9.64262C9.12113 9.42569 8.94437 9.25697 8.72744 9.25697H8.42214Z" fill="#EBC53C"/>
<path fill-rule="evenodd" clip-rule="evenodd" d="M15.8218 10.9525H9.12109V9.04837C9.12109 7.9798 10.0129 7.12012 11.1136 7.12012H13.8292C14.93 7.12012 15.8218 7.9798 15.8218 9.04837V10.9525ZM9.34606 10.7356H15.5968V9.04837C15.5968 8.10031 14.8094 7.33705 13.8292 7.33705H11.1136C10.1415 7.33705 9.34606 8.10031 9.34606 9.04837V10.7356Z" fill="#EBC53C"/>
<path d="M15.4525 12.6556H14.9945C14.9303 12.6556 14.8821 12.6074 14.8821 12.5511C14.8821 12.4869 14.9303 12.4386 14.9945 12.4386H15.4525C15.5329 12.4386 15.5971 12.3744 15.5971 12.294V10.9523H9.37047V12.294C9.37047 12.3744 9.43475 12.4386 9.51509 12.4386H9.93288C9.98912 12.4386 10.0454 12.4869 10.0454 12.5511C10.0454 12.6074 9.98912 12.6556 9.93288 12.6556H9.51509C9.31423 12.6556 9.14551 12.4949 9.14551 12.294V10.7354H15.8221V12.294C15.8221 12.4949 15.6534 12.6556 15.4525 12.6556Z" fill="#EBC53C"/>
<path d="M11.8368 5.3203C11.8368 5.3203 12.1582 5.44082 11.9895 6.17195C11.9895 6.17195 11.7565 5.37655 11.5958 5.47296C11.4351 5.57741 11.2101 5.53723 11.1298 5.48903C11.0494 5.43279 10.8566 5.59347 10.6879 6.21212C10.6879 6.21212 10.4227 5.70596 10.7602 5.248C10.9611 4.95876 11.9091 4.92662 11.8368 5.3203Z" fill="#EBC53C"/>
<path d="M12.5197 8.00364C12.5197 8.00364 12.9133 7.96347 12.9857 8.18843C13.058 8.4134 12.9857 8.6946 12.9857 8.6946H12.8973L12.7205 9.29718L11.7805 9.27308L11.8769 8.4616L11.6118 8.47767L11.5957 8.08398L12.3188 7.99561L12.3268 8.07595C12.3268 8.07595 12.3911 8.14826 12.5036 8.10005L12.5197 8.00364Z" fill="#EBC53C"/>
<path d="M12.6723 11.997C12.6723 11.997 13.074 10.6472 12.9936 10.1973C12.9133 9.73935 12.4473 9.61883 12.4473 9.61883L11.4832 9.32959L11.3145 10.2535C11.3145 10.2535 12.0054 10.2294 12.1902 10.3339C12.367 10.4464 12.1581 12.1898 12.1581 12.1898C12.1581 12.1898 12.5357 12.463 12.6723 11.997Z" fill="#B2E2F2"/>
<path d="M14.9059 9.88392C14.9059 9.88392 14.9541 10.4303 14.1587 10.2856C14.1587 10.2856 14.5684 11.7238 14.4318 12.1657C14.4318 12.1657 14.2471 12.3585 14.0864 12.1496C13.9257 11.9407 13.1945 10.0205 13.4034 9.65092C13.5722 9.34562 14.7452 9.69913 14.9059 9.88392Z" fill="#B2E2F2"/>
<path d="M13.2265 9.57849C13.2265 9.57849 12.7123 9.46601 12.8167 10.1971C12.9051 10.8319 13.3068 11.9486 13.3952 12.1736C13.4032 12.2057 13.4354 12.2218 13.4675 12.2298C13.5238 12.2379 13.6041 12.2379 13.6764 12.1977C13.7086 12.1816 13.7327 12.1495 13.7327 12.1093L13.6603 10.9443C13.6603 10.9443 13.3068 10.0927 13.4032 9.6508L13.2265 9.57849Z" fill="#B2E2F2"/>
<path d="M10.6631 7.11201C10.6631 7.11201 10.9523 7.40928 11.2898 7.38518C11.6111 7.36108 11.9165 7.18432 11.9165 7.18432C11.9165 7.18432 11.6031 7.03167 11.587 6.83884C12.053 6.65405 11.9245 6.09164 11.9245 6.09164C11.9245 6.09164 11.9084 5.48906 11.6433 5.46496C11.4987 5.44889 11.6352 5.61761 11.1291 5.48906C11.1291 5.48906 10.7675 5.34444 10.7434 6.17199C10.7434 6.16395 10.6631 6.66208 11.0809 6.88705C11.0809 6.88705 10.9363 7.08791 10.6631 7.11201Z" fill="#FEFEFE"/>
<path fill-rule="evenodd" clip-rule="evenodd" d="M11.25 7.44139C10.9126 7.44139 10.6313 7.16019 10.6233 7.14412L10.543 7.06378L10.6554 7.05574C10.8242 7.03967 10.9367 6.9513 11.0009 6.89505C10.6555 6.67813 10.6796 6.2764 10.6876 6.19606C10.6876 6.18535 10.6903 6.17464 10.6956 6.16392C10.7037 5.79434 10.784 5.56134 10.9286 5.46493C11.0411 5.39262 11.1455 5.43279 11.1455 5.43279C11.4509 5.51314 11.491 5.481 11.5232 5.4569C11.5473 5.4328 11.5794 5.40869 11.6517 5.40869C11.949 5.44083 11.9811 6.02734 11.9811 6.09161C11.9811 6.09161 12.1016 6.65402 11.6437 6.87095C11.6919 6.99147 11.8686 7.10395 11.9329 7.13609L12.0293 7.18429L11.941 7.2325C11.9249 7.24053 11.6196 7.40925 11.2982 7.44139C11.2821 7.44139 11.2661 7.44139 11.25 7.44139ZM10.784 7.14412C10.8884 7.22446 11.0813 7.34498 11.2902 7.32891C11.491 7.31284 11.6919 7.2325 11.7963 7.18429C11.6999 7.12002 11.5473 6.9995 11.5312 6.84685L11.5232 6.80668L11.5633 6.79061C11.9811 6.62188 11.8767 6.10768 11.8767 6.09965C11.8686 5.947 11.8124 5.53724 11.6356 5.52117C11.6115 5.51314 11.6115 5.52117 11.5955 5.53724C11.5312 5.59348 11.4509 5.62562 11.1134 5.53724C11.1054 5.53724 11.0491 5.51314 10.9849 5.56134C10.9045 5.60955 10.8161 5.7622 10.8001 6.17196L10.792 6.22017C10.784 6.32461 10.784 6.67009 11.1054 6.83881L11.1616 6.86292L11.1214 6.91112C11.1214 6.91916 11.0009 7.08788 10.784 7.14412Z" fill="#EBC53C"/>
<path d="M14.0295 6.0114C13.4912 5.94712 13.4029 6.51756 13.4029 6.51756C13.3466 7.00766 13.5876 7.22459 13.7564 7.321L13.7644 7.45759L13.6037 7.46562L13.7483 7.72272C13.8046 7.787 13.9572 7.77896 14.0295 7.73076L14.2866 7.44955L14.0938 7.47366V7.32904C14.0938 7.32904 14.4393 7.19245 14.4955 6.91928C14.5678 6.56577 14.3268 6.04354 14.0295 6.0114Z" fill="#FEFEFE"/>
<path d="M14.0544 6.18819C13.9821 6.2846 13.8134 6.45332 13.492 6.50153C13.4358 6.50956 13.4036 6.5658 13.4036 6.62204C13.3876 6.79077 13.4197 7.10411 13.7652 7.32907V7.46566C13.7652 7.46566 13.3956 7.44155 13.251 7.70669C13.251 7.70669 12.8894 6.01946 13.8536 5.76236C14.8257 5.49723 14.9382 6.89521 14.882 7.8272C14.882 7.8272 14.8177 7.38531 14.0946 7.47369V7.32907C14.0946 7.32907 14.424 7.18445 14.4883 6.7747C14.5043 6.71042 14.4722 6.65418 14.424 6.62204C14.3196 6.55777 14.1428 6.41315 14.1026 6.19622C14.1026 6.17212 14.0705 6.16408 14.0544 6.18819Z" fill="#EBC53C"/>
<path d="M12.7206 9.28123L11.7565 9.26516C10.9932 9.24106 11.2101 9.65885 11.2101 9.65885C11.3467 9.73116 11.1619 10.1329 11.2423 10.2454C11.3708 10.4302 11.4351 9.90792 11.4351 9.90792L11.5877 9.57047L11.6922 10.4221L11.5235 10.4302L11.4994 10.5989H11.9011C11.9493 10.5989 11.9895 10.5587 11.9895 10.5105C11.9895 10.2534 11.9493 9.60261 11.9493 9.60261C12.817 9.7633 12.7206 9.28123 12.7206 9.28123Z" fill="#EBC53C"/>
<path d="M12.9694 8.68666C12.9694 8.68666 12.857 9.16069 12.3187 9.35351C12.2303 9.38565 12.166 9.48206 12.1419 9.5383C12.0616 9.70703 11.9571 9.7472 11.8687 9.71506C11.7241 9.66685 11.8205 9.45796 11.9812 9.34548C12.1178 9.2571 12.5275 8.92769 12.5516 8.64648L12.9694 8.68666Z" fill="#FEFEFE"/>
<path d="M12.6404 11.9888C12.6404 11.9888 12.761 11.9888 12.8092 12.0691C12.8654 12.1495 13.0984 12.3021 13.2189 12.3021C13.3394 12.3021 13.5805 12.2619 13.5323 12.5753C13.5323 12.5753 12.7529 12.6878 12.0459 12.6074L12.1584 12.1655C12.1584 12.1655 12.1905 12.0852 12.311 12.1736C12.311 12.1736 12.5922 12.286 12.6404 11.9888Z" fill="#EBC53C"/>
<path d="M11.2099 12.0371C11.2099 12.0371 11.3304 12.0371 11.3866 12.1175C11.4348 12.1978 11.5634 12.3103 11.6839 12.3103C11.8044 12.3103 12.0294 12.2942 11.9812 12.6076C11.9812 12.6076 11.2661 12.6879 10.5832 12.6236C10.543 12.6156 10.5189 12.5834 10.5269 12.5513L10.6233 12.1737C10.6233 12.1737 10.6555 12.0933 10.776 12.1817C10.776 12.1817 11.1616 12.3263 11.2099 12.0371Z" fill="#EBC53C"/>
<path d="M13.3627 12.2296C13.3627 12.2296 13.3788 12.31 13.2341 12.4064C13.1297 12.4707 13.2261 12.5992 13.2261 12.5992C13.2261 12.5992 13.4511 12.6153 13.6841 12.5751C13.8849 12.543 13.8207 12.2296 13.7323 12.1011L13.6359 12.2216C13.6359 12.2216 13.4591 12.1493 13.3627 12.2296Z" fill="#EBC53C"/>
<path d="M14.0864 12.2057C14.0864 12.2057 14.1105 12.286 13.9579 12.3744C13.8615 12.4387 13.9579 12.5672 13.9579 12.5672C13.9579 12.5672 14.1748 12.5833 14.4159 12.5431C14.6087 12.511 14.5524 12.1977 14.456 12.0771L14.3676 12.1977C14.3676 12.1977 14.1829 12.1173 14.0864 12.2057Z" fill="#EBC53C"/>
<path d="M13.6201 7.47342L13.7325 7.66624C13.8531 7.80283 13.9736 7.73052 14.0379 7.67428L14.2709 7.45735C14.2709 7.45735 14.9136 7.24846 14.9859 8.22062C14.9859 8.22062 14.7529 8.309 14.6886 8.42148C14.6324 8.52592 14.3914 8.74285 14.6645 9.09637C14.9377 9.44988 14.9056 9.88374 14.9056 9.88374C14.9056 9.88374 14.0298 9.3374 13.4031 9.65074L13.0014 9.61057C13.0014 9.61057 13.4835 8.95978 13.3308 8.48575L12.9612 8.54199L12.8086 8.10814C12.8086 8.10814 13.1862 7.51359 13.6201 7.47342Z" fill="#EBC53C"/>
<path d="M14.9699 8.19678C14.9699 8.19678 14.994 9.09663 14.1665 9.3457C14.1102 9.36177 13.588 9.52245 13.5559 9.56262C13.4273 9.72331 13.347 9.80366 13.2666 9.77955C13.1381 9.73135 13.2666 9.40194 13.5559 9.22518C13.6764 9.15287 14.4075 8.93594 14.4316 8.27712L14.9699 8.19678Z" fill="#FEFEFE"/>
<path d="M14.3912 9.36953L14.335 9.28115C15.042 8.99191 14.8492 7.98762 14.8492 7.97958L14.9375 7.92334C14.9375 7.93941 15.2428 9.04012 14.3912 9.36953Z" fill="#EBC53C"/>
<path d="M12.4955 9.45796L12.4473 9.33744C12.849 9.16872 12.8892 8.47776 12.8892 8.46973L13.0177 8.47776C13.0177 8.5099 12.9695 9.2571 12.4955 9.45796Z" fill="#EBC53C"/>
<path d="M12.1664 7.25644C12.0941 7.17609 12.0058 7.13592 11.9174 7.11182C11.9067 7.11182 11.8959 7.11182 11.8852 7.11182C11.7728 7.09575 11.6844 7.11182 11.6844 7.11182C11.6121 7.26447 11.5237 7.39302 11.2344 7.39302C10.9372 7.39302 10.8488 7.05558 10.8488 7.05558C10.8488 7.05558 10.5355 6.98327 10.1739 7.2243C9.86057 7.42516 9.68381 7.78671 9.66774 8.15629C9.63561 8.72673 9.6115 9.69086 9.73202 9.723C10.0855 9.81941 11.3389 9.67479 11.4353 9.65872C11.5237 9.63462 11.9415 9.22486 11.9816 9.01597C12.0218 8.81511 11.837 8.18039 11.8692 8.06791C11.8692 8.05184 11.9254 8.26074 11.9415 8.22057L12.2468 8.01167L12.4717 8.12415L12.528 7.53764C12.528 7.53764 12.3512 7.38499 12.1664 7.25644Z" fill="#EBC53C"/>
<path d="M11.2264 12.0288L11.5478 10.3336C11.5478 10.3336 11.5799 9.731 11.0577 9.60245C11.0175 9.58638 9.85254 9.79528 9.67578 9.68279C9.67578 9.68279 9.74809 10.2613 10.7685 10.5184C11.0416 10.5907 10.6238 12.2056 10.6238 12.2056C10.6238 12.2056 10.6319 12.1976 10.8408 12.2377C11.1782 12.294 11.1702 12.1654 11.2264 12.0288Z" fill="#B2E2F2"/>
<path d="M9.68327 8.33323C9.68327 8.33323 9.54668 8.79119 10.1171 9.28932C10.4465 9.57053 11.258 9.8678 11.3785 9.79549C11.5633 9.68301 11.1616 9.44198 10.9527 9.29736C10.7759 9.17684 10.1653 8.85547 10.1091 8.3252L9.68327 8.33323Z" fill="#FEFEFE"/>
<path fill-rule="evenodd" clip-rule="evenodd" d="M11.3225 9.81955C11.0815 9.81955 10.3985 9.54638 10.1093 9.29731C9.53887 8.79918 9.67545 8.33318 9.67545 8.33318V8.32515L9.68349 8.31711L10.1173 8.30908V8.31711C10.1736 8.79114 10.6557 9.09645 10.8886 9.24107C10.9154 9.25714 10.9395 9.27321 10.961 9.28928C10.977 9.29999 10.9958 9.3107 11.0172 9.32141C11.202 9.44996 11.443 9.61065 11.443 9.72313C11.443 9.75527 11.4243 9.78205 11.3868 9.80348C11.3707 9.81419 11.3493 9.81955 11.3225 9.81955ZM9.69956 8.34925C9.68349 8.41353 9.61118 8.83132 10.1254 9.27321C10.4628 9.57048 11.2582 9.84365 11.3787 9.77938C11.4002 9.76331 11.4136 9.74456 11.4189 9.72313C11.4189 9.62672 11.1699 9.458 11.0011 9.34552C10.9797 9.33481 10.961 9.32142 10.9449 9.30535C10.9235 9.29463 10.8994 9.28124 10.8726 9.26517C10.6396 9.11252 10.1575 8.80721 10.0932 8.33318L9.69956 8.34925Z" fill="#EBC53C"/>
<path d="M12.6477 6.5335C12.2701 6.44512 11.772 6.77453 11.9568 7.17625C11.9568 7.17625 12.1094 7.24053 12.3103 7.0477L12.3264 7.16018C12.3264 7.16018 12.7763 7.06377 12.8647 7.00753L12.953 7.52977C12.953 7.52977 13.0977 7.36105 13.1298 7.18429C13.1619 6.95933 13.0655 6.63795 12.6477 6.5335Z" fill="#EBC53C"/>
<path d="M12.9536 7.45725C12.9536 7.45725 12.9455 7.82683 12.5438 7.91521L12.5036 8.1C12.5036 8.1 12.3992 8.17231 12.3269 8.0759V7.91521C12.3269 7.91521 11.8127 7.7947 11.9573 7.17605C11.9573 7.17605 12.1903 7.20015 12.3269 7.00732V7.15998C12.3269 7.15998 12.7607 7.07963 12.8652 7.00732L12.9536 7.45725Z" fill="#FEFEFE"/>
<path fill-rule="evenodd" clip-rule="evenodd" d="M12.4235 8.18061C12.3753 8.18061 12.3271 8.15651 12.287 8.1083L12.2789 8.10027V7.95565C12.1504 7.90744 11.7728 7.71462 11.9013 7.16828L11.9093 7.12007L11.9575 7.12811C11.9656 7.12811 12.1664 7.14418 12.287 6.97545L12.3914 6.83887L12.3834 7.09597C12.5441 7.0558 12.7771 7.00759 12.8413 6.95938L12.9056 6.91118L13.0101 7.45752C13.0101 7.46555 12.994 7.8512 12.5842 7.96368L12.5521 8.13241L12.536 8.14044C12.5039 8.16454 12.4637 8.18061 12.4235 8.18061ZM12.3834 8.0601C12.4075 8.07617 12.4396 8.06813 12.4557 8.0601L12.4959 7.8753L12.528 7.86727C12.8654 7.78693 12.8976 7.50572 12.8976 7.46555L12.8253 7.08793C12.6726 7.15221 12.3753 7.20042 12.3352 7.20845L12.2709 7.22452V7.14418C12.1745 7.21649 12.062 7.23255 11.9977 7.23255C11.9013 7.75479 12.3271 7.85924 12.3432 7.86727L12.3834 7.8753V8.0601Z" fill="#EBC53C"/>
<path d="M12.0298 8.47776C12.0298 8.47776 11.9655 8.86341 11.5236 9.0241C11.4352 9.0482 11.4111 9.15265 11.379 9.20085C11.2986 9.33744 11.2103 9.40171 11.146 9.36958C11.0415 9.32137 11.1058 9.19282 11.2103 9.05624C11.3147 8.93572 11.7566 8.71879 11.7727 8.46973L12.0298 8.47776Z" fill="#FEFEFE"/>
<path d="M13.0177 7.23242L13.2908 7.30473L13.331 7.65021L13.09 7.94748L12.7365 8.27689L12.5517 8.13228L12.5195 7.93945L12.7365 7.85911L12.9052 7.66628L12.9614 7.41721L13.0177 7.23242Z" fill="#EBC53C"/>
<path d="M24.836 10.7595C25.0047 12.1414 23.8638 13.5956 23.4139 13.6519C22.9559 13.7001 21.9034 12.7761 21.7026 12.4628C21.5258 11.8763 21.4776 11.2657 21.5499 10.655C21.5901 10.173 21.8231 10.2212 22.1927 10.1087C22.3748 10.0391 22.5488 9.95605 22.7149 9.85964C23.0764 9.61861 23.4782 9.44185 23.8959 9.3374C24.2254 9.36954 24.7315 9.95605 24.836 10.7595Z" fill="#B2E2F2"/>
<path d="M22.675 11.7157C22.6428 11.6916 19.6139 9.58656 18.3203 9.35356L18.3444 9.10449C19.6701 9.34552 22.6267 11.4023 22.7553 11.4907L22.6669 11.563L22.675 11.7157Z" fill="#B2E2F2"/>
<path d="M22.3616 12.2458C21.0279 12.2458 19.6862 12.3181 18.3524 12.4466L18.3203 12.2538C19.6701 12.1092 21.0279 12.0449 22.3857 12.0449L22.3616 12.2458Z" fill="#B2E2F2"/>
<path d="M21.9522 10.3097C21.9683 10.3017 21.9843 10.3017 22.0004 10.3097C22.0165 10.3258 22.0245 10.3419 22.0165 10.3579C22.0165 10.374 22.0084 10.3901 21.9924 10.3981C21.9549 10.4142 21.9174 10.4303 21.8799 10.4463C21.8236 10.4785 21.7835 10.5347 21.7915 10.5909V10.6391C21.7915 10.6713 21.7754 10.6954 21.7513 10.6954C21.7192 10.6954 21.6951 10.6713 21.6951 10.6472V10.599C21.6871 10.5026 21.7433 10.4061 21.8317 10.3579C21.8745 10.3419 21.9147 10.3258 21.9522 10.3097Z" fill="#FEFEFE"/>
<path d="M22.4503 10.1168C22.4664 10.1088 22.4905 10.1249 22.4985 10.149C22.5065 10.1731 22.4905 10.2052 22.4744 10.2132C22.378 10.2454 22.2816 10.2856 22.1851 10.3338C22.1691 10.3338 22.153 10.3338 22.145 10.3257C22.1369 10.3097 22.1289 10.2936 22.1289 10.2775C22.1289 10.2615 22.1369 10.2454 22.153 10.2454C22.2494 10.1972 22.3485 10.1543 22.4503 10.1168Z" fill="#FEFEFE"/>
<path d="M22.9003 9.89999C22.9163 9.89195 22.9404 9.89998 22.9485 9.92409C22.9565 9.94819 22.9485 9.98033 22.9324 9.98836C22.836 10.0312 22.7422 10.0767 22.6512 10.1249C22.6351 10.133 22.6191 10.133 22.611 10.1249C22.5949 10.1169 22.5869 10.1008 22.5869 10.0767C22.5949 10.0607 22.603 10.0526 22.611 10.0446C22.7074 9.99104 22.8038 9.94284 22.9003 9.89999Z" fill="#FEFEFE"/>
<path d="M23.3419 9.69105C23.358 9.68302 23.3821 9.69909 23.3901 9.72319C23.3981 9.7473 23.3821 9.7714 23.366 9.77943C23.2696 9.81693 23.1732 9.85978 23.0767 9.90798C23.0687 9.91602 23.0526 9.91602 23.0366 9.89995C23.0285 9.89192 23.0205 9.87585 23.0205 9.85978C23.0205 9.84371 23.0366 9.82764 23.0446 9.81961C23.141 9.7714 23.2401 9.72855 23.3419 9.69105Z" fill="#FEFEFE"/>
<path d="M23.7999 9.49037C23.824 9.48234 23.8481 9.49841 23.8481 9.52251C23.8561 9.54661 23.8481 9.57072 23.824 9.57875C23.7276 9.61089 23.6312 9.65106 23.5348 9.69927C23.5267 9.7073 23.5107 9.69927 23.4946 9.69123C23.4866 9.6832 23.4785 9.65909 23.4785 9.64302C23.4866 9.62696 23.4946 9.61089 23.5026 9.61089C23.6044 9.56268 23.7035 9.52251 23.7999 9.49037Z" fill="#FEFEFE"/>
</svg>
