<svg width="70" height="70" viewBox="0 0 70 70" fill="none" xmlns="http://www.w3.org/2000/svg">
<path d="M65.1212 42.1061L48.6818 48.5758C48.6818 49 48.5757 49.5303 48.3636 49.9546C48.1515 50.8031 47.0909 53.4546 41.6818 53.1364C39.5606 53.0303 33.7272 52.9243 31.606 54.3031C31.0757 54.6213 30.3333 54.5152 30.0151 53.9849C29.6969 53.4546 29.803 52.7122 30.3333 52.394C33.4091 50.2728 41.0454 50.697 41.8939 50.8031C45.0757 51.0152 46.0303 49.9546 46.1363 49.4243C46.2424 49 46.5606 48.5758 46.4545 48.1516C46.1363 47.197 44.1212 46.8788 43.1666 46.8788C41.2576 46.9849 33.4091 46.6667 30.5454 45.9243C27.6818 45.2879 23.4394 44.2273 18.1363 48.4697C16.7576 49.5303 14.6363 50.9091 11.7727 52.394L19.0909 60.4546C26.7272 58.0152 36.803 58.2273 41.1515 58.4394C42.5303 58.5455 43.803 58.1213 44.9697 57.2728C49.9545 53.8788 63.6363 46.6667 66.2879 45.2879C67.2424 44.8637 67.5606 43.5909 67.0303 42.8485C66.606 42.1061 65.7576 41.894 65.1212 42.1061Z" fill="white"/>
<path d="M7.21217 50.803C6.78793 50.3788 6.15156 50.3788 5.72732 50.697L1.80308 54.197C1.37884 54.6212 1.37884 55.2576 1.69702 55.6818L13.3637 68.6212C13.7879 69.0454 14.4243 69.0454 14.8485 68.6212L19.5152 65.8636C19.9394 65.4394 19.9394 64.803 19.5152 64.4848L7.21217 50.803Z" fill="white"/>
<path d="M35.5305 24.3939H49.4244C50.3789 24.3939 51.1214 23.6515 51.1214 22.697C51.1214 21.7424 50.3789 21 49.4244 21H35.5305C34.5759 21 33.8335 21.7424 33.8335 22.697C33.8335 23.6515 34.5759 24.3939 35.5305 24.3939Z" fill="white"/>
<path d="M30.8638 43.803C38.5002 45.6061 45.288 43.3788 47.8335 46.5606L64.2729 40.0909C64.5911 39.9849 65.0153 39.8788 65.3335 39.8788V17.6061H19.0911V44.9697C23.2274 42.6364 26.6214 42.8485 30.8638 43.803ZM54.6214 40.6212H45.9244C45.3941 40.6212 44.8638 40.197 44.8638 39.5606C44.8638 38.9243 45.288 38.5 45.9244 38.5H54.6214C55.1517 38.5 55.682 38.9243 55.682 39.5606C55.682 40.197 55.2577 40.6212 54.6214 40.6212ZM60.5608 35.6364C60.5608 36.1667 60.1365 36.697 59.5002 36.697H45.9244C45.3941 36.697 44.8638 36.2727 44.8638 35.6364C44.8638 35.1061 45.288 34.5758 45.9244 34.5758H59.5002C60.0305 34.5758 60.5608 35 60.5608 35.6364ZM35.5305 18.8788H49.4244C51.5456 18.8788 53.1365 20.5758 53.1365 22.5909C53.1365 24.7121 51.4395 26.303 49.4244 26.303H35.5305C33.4092 26.303 31.8183 24.6061 31.8183 22.5909C31.7123 20.5758 33.4092 18.8788 35.5305 18.8788Z" fill="white"/>
<path d="M66.288 6.46971H50.0607C50.2728 4.98486 49.8486 3.50001 48.788 2.4394C46.9849 0.636373 44.1213 0.636373 42.3183 2.33334C40.4092 0.530312 37.5455 0.742433 35.8486 2.4394C34.788 3.50001 34.3637 4.98486 34.5758 6.46971H18.1365C16.9698 6.46971 15.9092 7.42425 15.9092 8.69698V14.4243C15.9092 15.0606 16.4395 15.4849 16.9698 15.4849H67.2425C67.8789 15.4849 68.3031 14.9546 68.3031 14.4243V8.69698C68.5152 7.42425 67.4546 6.46971 66.288 6.46971ZM40.9395 6.46971H36.591C36.3789 5.62122 36.591 4.66668 37.2274 4.03031C38.1819 3.07577 39.7728 3.07577 40.7274 4.03031C41.1516 4.34849 41.2577 5.30304 40.9395 6.46971ZM47.8334 6.46971H43.4849C43.2728 5.30304 43.2728 4.34849 43.591 4.03031C44.5455 3.07577 46.2425 3.07577 47.091 4.03031C47.8334 4.66668 48.0455 5.62122 47.8334 6.46971Z" fill="white"/>
</svg>
