<svg width="60" height="60" viewBox="0 0 60 60" fill="none" xmlns="http://www.w3.org/2000/svg">
<path fill-rule="evenodd" clip-rule="evenodd" d="M0 30C0 13.4314 13.4314 0 30 0C46.5684 0 60 13.4314 60 30C60 46.5684 46.5684 60 30 60C13.4314 60 0 46.5684 0 30ZM24.9962 20.2702C25.6128 19.9123 26.3733 19.9098 26.9923 20.2635L40.9924 28.2635C41.6156 28.6196 42 29.2823 42 30C42 30.7177 41.6156 31.3804 40.9924 31.7365L26.9923 39.7365C26.3733 40.0904 25.6128 40.0876 24.9962 39.7298C24.3795 39.372 24 38.713 24 38V22C24 21.287 24.3795 20.628 24.9962 20.2702Z" fill="white"/>
</svg>
