<svg width="36" height="36" viewBox="0 0 36 36" fill="none" xmlns="http://www.w3.org/2000/svg">
<path d="M24 3H12C6 3 3 6 3 12V31.5C3 32.325 3.675 33 4.5 33H24C30 33 33 30 33 24V12C33 6 30 3 24 3ZM21 22.875H10.5C9.885 22.875 9.375 22.365 9.375 21.75C9.375 21.135 9.885 20.625 10.5 20.625H21C21.615 20.625 22.125 21.135 22.125 21.75C22.125 22.365 21.615 22.875 21 22.875ZM25.5 15.375H10.5C9.885 15.375 9.375 14.865 9.375 14.25C9.375 13.635 9.885 13.125 10.5 13.125H25.5C26.115 13.125 26.625 13.635 26.625 14.25C26.625 14.865 26.115 15.375 25.5 15.375Z" fill="#151414"/>
</svg>
