<svg width="82" height="82" viewBox="0 0 82 82" fill="none" xmlns="http://www.w3.org/2000/svg">
<path d="M23.2735 67.1677H10.6117C9.04405 67.1677 7.83817 68.3736 7.83817 69.8206C7.71758 71.3883 9.28523 72.7147 10.8529 72.7147H31.3529C31.7146 72.7147 31.9558 72.8353 32.197 73.0765L34.7293 75.6089C35.3323 76.2118 36.1764 76.2118 37.0205 75.3677L51.9735 60.4147C52.4558 59.9324 52.5764 58.9677 51.9735 58.3647L27.0117 33.2824C26.1676 32.4383 24.7205 32.4383 23.997 33.2824C23.1529 34.1265 23.1529 35.453 23.997 36.2971L33.8852 46.1853C34.3676 46.6677 34.3676 47.3912 33.8852 47.8736C33.4029 48.3559 32.6793 48.3559 32.197 47.8736C31.7146 47.3912 32.0764 47.753 31.9558 47.6324C31.2323 46.9089 28.4588 44.1353 18.8117 34.4883C17.9676 33.6441 16.6411 33.6441 15.797 34.4883C14.9529 35.3324 14.9529 36.6589 15.797 37.503L29.1823 50.8883C29.6646 51.3706 29.6646 52.0941 29.1823 52.5765C28.6999 53.0588 27.9764 53.0588 27.4941 52.5765C22.9117 48.2353 13.6264 38.95 10.1293 35.453C9.16464 34.4883 7.597 34.6089 6.75288 35.8147C6.27052 36.6589 6.39111 37.8647 7.23523 38.5883C11.2146 42.5677 19.7764 51.1294 24.3588 55.7118C24.8411 56.1941 24.8411 56.9177 24.3588 57.4C23.8764 57.8824 23.1529 57.8824 22.6705 57.4L7.47641 42.3265C6.75288 41.4824 5.30582 41.4824 4.4617 42.3265C3.61758 43.1706 3.61758 44.4971 4.4617 45.3412L24.1176 65.1177C24.9617 65.8412 24.3588 67.1677 23.2735 67.1677Z" fill="white"/>
<path d="M54.3853 67.2883L52.4559 63.55L39.6736 76.2118L43.5324 78.2618L54.3853 67.2883Z" fill="white"/>
<path d="M45.3411 4.34122C44.497 3.4971 43.0499 3.4971 42.3264 4.34122C41.4823 5.18534 41.4823 6.51181 42.3264 7.35592L57.5205 22.55C58.0029 23.0324 58.0029 23.7559 57.5205 24.2383C57.0382 24.7206 56.3146 24.7206 55.8323 24.2383C51.8529 20.3795 42.0852 10.6118 38.5882 7.23534C37.8646 6.51181 36.6587 6.27063 35.8146 6.87357C34.7293 7.5971 34.4882 9.16475 35.4529 10.25C38.2264 12.903 50.647 25.3236 52.697 27.3736C53.1793 27.8559 53.1793 28.5795 52.697 29.0618C52.2146 29.5442 51.4911 29.5442 51.0087 29.0618L37.6235 15.6765C36.7793 14.8324 35.3323 14.8324 34.6087 15.6765C33.7646 16.5206 33.7646 17.8471 34.6087 18.6912L47.994 32.0765C48.4764 32.5589 48.4764 33.2824 47.994 33.7647C47.5117 34.2471 46.7882 34.2471 46.3058 33.7647L36.4176 23.8765C35.5735 23.0324 34.247 23.0324 33.4029 23.8765C32.5587 24.7206 32.5587 26.0471 33.4029 26.8912L58.4852 51.9736C59.0882 52.5765 60.0529 52.5765 60.5352 51.9736L75.7293 36.7795C76.3323 36.1765 76.3323 35.2118 75.7293 34.7295L73.197 32.1971C72.594 31.5942 72.9558 31.9559 72.8352 10.853C72.8352 9.28534 71.5087 7.83828 70.0617 7.83828C69.2176 7.83828 68.6146 8.20004 68.1323 8.68239C67.6499 9.16475 67.2882 9.88828 67.2882 10.7324V23.3942C67.2882 23.8765 67.047 24.3589 66.5646 24.4795C66.0823 24.7206 65.5999 24.6 65.2382 24.2383L45.3411 4.34122Z" fill="white"/>
<path d="M63.55 52.4559L67.4089 54.3853L78.3824 43.4118L76.453 39.553C71.8706 44.1353 68.0118 47.8736 63.55 52.4559Z" fill="white"/>
</svg>
