<svg width="108" height="40" viewBox="0 0 108 40" fill="none" xmlns="http://www.w3.org/2000/svg">
<path fill-rule="evenodd" clip-rule="evenodd" d="M5.89996 40C3.02009 39.9949 0.653571 37.6283 0.648438 34.7485V5.25154C0.653571 2.37166 3.02009 0.00513347 5.89996 0H101.901C104.781 0.00513347 107.147 2.37166 107.152 5.25154V34.7433C107.147 37.6232 104.781 39.9897 101.901 39.9949H5.89996V40Z" fill="#015A75"/>
<path fill-rule="evenodd" clip-rule="evenodd" d="M5.90283 0.822266C3.4747 0.827399 1.47266 2.82432 1.47266 5.25245V34.7442C1.47779 37.1724 3.4747 39.1744 5.90283 39.1744H36.7549V0.822266H5.90283ZM78.5361 27.5163L79.1932 26.5923C79.6655 27.0851 80.3226 27.3623 81.0053 27.3623C81.6727 27.3623 81.9961 27.0543 81.9961 26.7309C81.9961 26.3151 81.4673 26.1919 80.841 26.0379C79.9068 25.8274 78.7158 25.5707 78.7158 24.272C78.7158 23.3223 79.5371 22.5368 80.877 22.5368C81.7856 22.5368 82.5351 22.8089 83.0998 23.3325L82.4221 24.2206C81.9653 23.8151 81.3749 23.5943 80.764 23.5995C80.2456 23.5995 79.953 23.8305 79.953 24.1693C79.953 24.5389 80.4766 24.657 81.0874 24.8007C82.0217 25.0214 83.223 25.3038 83.223 26.5974C83.223 27.6395 82.4786 28.4249 80.9437 28.4249C79.8503 28.4147 79.0597 28.0553 78.5361 27.5163ZM73.3411 27.5163L73.9981 26.5923C74.4704 27.0851 75.1275 27.3623 75.8103 27.3623C76.4776 27.3623 76.801 27.0543 76.801 26.7309C76.801 26.3151 76.2723 26.1919 75.6511 26.0379C74.7168 25.8274 73.5259 25.5707 73.5259 24.272C73.5259 23.3223 74.3472 22.5368 75.6871 22.5368C76.5905 22.5368 77.3452 22.8089 77.9098 23.3325L77.2374 24.2206C76.7805 23.8151 76.1901 23.5943 75.5793 23.5995C75.0608 23.5995 74.7682 23.8305 74.7682 24.1693C74.7682 24.5389 75.2918 24.657 75.9027 24.8007C76.837 25.0214 78.0382 25.3038 78.0382 26.5974C78.0382 27.6395 77.2938 28.4249 75.7589 28.4249C74.6604 28.4147 73.8749 28.0553 73.3411 27.5163ZM54.4243 27.5163L55.0814 26.5923C55.5536 27.0851 56.2107 27.3623 56.8935 27.3623C57.5608 27.3623 57.8842 27.0543 57.8842 26.7309C57.8842 26.3151 57.3555 26.1919 56.7292 26.0379C55.7949 25.8274 54.6039 25.5707 54.6039 24.272C54.6039 23.3223 55.4253 22.5368 56.7651 22.5368C57.6738 22.5368 58.4232 22.8089 58.9879 23.3325L58.3103 24.2206C57.8534 23.8151 57.2631 23.5943 56.6522 23.5995C56.1337 23.5995 55.8411 23.8305 55.8411 24.1693C55.8411 24.5389 56.3596 24.657 56.9756 24.8007C57.9099 25.0214 59.1111 25.3038 59.1111 26.5974C59.1111 27.6395 58.3668 28.4249 56.8319 28.4249C55.7436 28.4147 54.9581 28.0553 54.4243 27.5163ZM48.4797 26.0481V22.619H49.722V26.0019C49.722 26.7976 50.1892 27.3418 51.0619 27.3418C51.9345 27.3418 52.3966 26.7925 52.3966 26.0019V22.619H53.6389V26.0379C53.6389 27.4547 52.8021 28.4198 51.067 28.4198C49.337 28.4249 48.4797 27.4496 48.4797 26.0481ZM66.3288 28.3223L63.6132 24.6056V28.3223H62.4017V22.619H63.644L66.2877 26.1919V22.619H67.4992V28.3171H66.3288V28.3223ZM59.9992 28.3223V22.619H61.2107V28.3171H59.9992V28.3223ZM68.685 28.3223V22.619H72.7251V23.6867H69.9016V24.8931H72.6635V25.9609H69.9016V27.2494H72.7199V28.3171L68.685 28.3223ZM42.7611 28.3223V22.619H45.759C46.8473 22.619 47.4017 23.312 47.4017 24.0718C47.4017 24.7904 46.9551 25.2679 46.4212 25.3808C47.027 25.4732 47.5095 26.0635 47.5095 26.7771C47.5095 27.6292 46.9397 28.3171 45.8514 28.3171L42.7611 28.3223ZM46.2723 26.6128C46.2723 26.2535 46.0157 25.9455 45.5383 25.9455H43.9777V27.2699H45.5383C45.9951 27.2699 46.2723 27.0184 46.2723 26.6128ZM46.1645 24.2822C46.1645 23.9383 45.8822 23.6611 45.5434 23.6611C45.528 23.6611 45.5126 23.6611 45.4972 23.6611H43.9777V24.9034H45.4972C45.9079 24.9034 46.1645 24.6467 46.1645 24.2874V24.2822ZM48.3925 15.6837C48.3925 13.9331 49.7169 12.7319 51.4263 12.7319C52.4222 12.7063 53.3462 13.2504 53.8083 14.1282L52.7662 14.6416C52.5095 14.1436 51.9961 13.8202 51.4315 13.8099C50.3996 13.8099 49.645 14.6056 49.645 15.6734C49.645 16.7412 50.3945 17.5368 51.4315 17.5368C51.9961 17.5317 52.5146 17.2134 52.7713 16.7104L53.8083 17.2288C53.3976 17.9373 52.6789 18.6251 51.4263 18.6251C49.722 18.6303 48.3925 17.4393 48.3925 15.6837ZM54.3216 15.6837C54.3216 13.9331 55.646 12.7319 57.3555 12.7319C58.3514 12.7063 59.2754 13.2504 59.7374 14.1282L58.6953 14.6416C58.4335 14.1385 57.9202 13.8202 57.3555 13.8099C56.3237 13.8099 55.569 14.6056 55.569 15.6734C55.569 16.7412 56.3185 17.5368 57.3555 17.5368C57.9202 17.5317 58.4386 17.2134 58.6953 16.7104L59.7374 17.2134C59.3267 17.9219 58.608 18.6097 57.3555 18.6097C55.6512 18.6303 54.3216 17.4393 54.3216 15.6837ZM63.7466 18.5327L62.6275 16.5153H61.7394V18.5327H60.528V12.8346H63.1922C64.378 12.8346 65.107 13.6097 65.107 14.6724C65.107 15.6785 64.4756 16.2278 63.8647 16.3664L65.1481 18.543L63.7466 18.5327ZM46.6933 18.5327L46.3442 17.5676H43.9007L43.5413 18.5327H42.1553L44.3627 12.8346H45.8822L48.0793 18.5327H46.6933ZM89.7938 18.5327V12.8346H92.0423C93.8287 12.8346 95.0659 13.9691 95.0659 15.6888C95.0659 17.4085 93.8236 18.5327 92.0423 18.5327H89.7938ZM84.7527 18.5327V12.8346H88.7928V13.9023H85.9642V15.1087H88.7209V16.1765H85.9642V17.465H88.7825V18.5327H84.7527ZM77.3195 18.5327V12.8346H78.531V18.5327H77.3195ZM71.1234 18.5327V12.8346H73.3719C75.1583 12.8346 76.3955 13.9691 76.3955 15.6888C76.3955 17.4085 75.1532 18.5327 73.3719 18.5327H71.1234ZM66.0824 18.5327V12.8346H70.1224V13.9023H67.2939V15.1087H70.0557V16.1765H67.2939V17.465H70.1121V18.5327H66.0824ZM81.0361 18.5327V13.9023H79.3677V12.8346H83.916V13.9023H82.2579V18.5327H81.0361ZM93.8338 15.6888C93.8338 14.6826 93.2127 13.9023 92.0474 13.9023H91.0156V17.465H92.0474C93.1665 17.465 93.8236 16.6539 93.8236 15.6888H93.8338ZM75.1634 15.6888C75.1634 14.6826 74.5423 13.9023 73.377 13.9023H72.3452V17.465H73.377C74.4961 17.465 75.1532 16.6539 75.1532 15.6888H75.1634ZM45.1224 14.0461L44.2344 16.4999H46.0105L45.1224 14.0461ZM63.8647 14.6672C63.8647 14.1898 63.5002 13.8972 63.0125 13.8972H61.7394V15.4373H63.0125C63.5002 15.4373 63.8647 15.1498 63.8647 14.6672Z" fill="white"/>
<path fill-rule="evenodd" clip-rule="evenodd" d="M13.4088 32.9513C14.2199 33.3106 14.6152 33.5468 14.7692 34.5529C15.031 36.3086 13.4139 36.9759 11.8893 36.9759H8.31641V29.3168H11.9201C13.2137 29.3168 14.3944 29.9071 14.3944 31.3496C14.3944 32.0683 14.0197 32.5919 13.4088 32.9513ZM20.5648 32.9513C21.3759 33.3106 21.7712 33.5468 21.9252 34.5529C22.187 36.3086 20.57 36.9759 19.0453 36.9759H15.4724V29.3168H19.0761C20.3698 29.3168 21.5505 29.9071 21.5505 31.3496C21.5505 32.0683 21.1757 32.5919 20.5648 32.9513ZM29.0812 34.558C28.9272 33.5519 28.5268 33.3157 27.7209 32.9564C28.3318 32.5971 28.7116 32.0734 28.7116 31.3496C28.7116 29.9071 27.5309 29.3168 26.2373 29.3168H22.6336V36.981H26.2065C27.726 36.981 29.3482 36.3137 29.0812 34.558ZM30.0771 35.1433V35.1279C30.0771 34.1576 30.8728 33.3619 31.843 33.3619C32.8133 33.3619 33.609 34.1576 33.609 35.1227V35.1381C33.609 36.1084 32.8133 36.904 31.843 36.904C30.878 36.9092 30.0823 36.1135 30.0771 35.1433ZM33.4498 35.1381V35.1227C33.4447 34.2449 32.7209 33.5211 31.843 33.5211C30.9601 33.5211 30.2363 34.2449 30.2363 35.1279V35.1433C30.2414 36.0211 30.9652 36.7449 31.843 36.7449C32.726 36.7449 33.4498 36.0211 33.4498 35.1381ZM31.15 34.1782H31.9611C32.1562 34.1679 32.3513 34.2398 32.5001 34.3681C32.5977 34.4605 32.649 34.5888 32.649 34.7172V34.7274C32.649 35.0201 32.4539 35.1946 32.1819 35.2613L32.7414 35.9903H32.4077L31.8841 35.3075H31.4221V35.9903H31.1552L31.15 34.1782ZM12.0382 35.5283H9.94371V33.7829H12.0382C13.5731 33.7829 13.4807 35.5283 12.0382 35.5283ZM19.1942 35.5283H17.1049V33.7829H19.1942C20.7291 33.7829 20.6367 35.5283 19.1942 35.5283ZM24.2609 33.7829V35.5283H26.3502C27.7927 35.5283 27.8852 33.7829 26.3502 33.7829H24.2609ZM31.9354 35.0663C32.187 35.0663 32.3667 34.9482 32.3667 34.7429V34.7326C32.3667 34.5426 32.2127 34.4194 31.9508 34.4194H31.417V35.0663H31.9354ZM9.94371 30.7798H11.8226C12.993 30.7798 13.0341 32.4123 11.8944 32.4123H9.94371V30.7798ZM24.2661 30.7798H26.1295C27.2999 30.7798 27.341 32.4123 26.2014 32.4123H24.2558L24.2661 30.7798ZM17.11 30.7798H18.9837C20.1542 30.7798 20.1952 32.4123 19.0556 32.4123H17.1049L17.11 30.7798ZM11.7764 25.8876H15.262L15.8831 28.0026H21.5813L22.2024 25.8876H25.688L25.2312 24.3322H12.2332L11.7764 25.8876ZM15.9961 13.3568L14.3072 15.6874C13.4601 16.8527 13.7219 18.9215 14.877 19.7531L18.0084 22.0118C18.5474 22.402 18.5885 22.787 18.3318 23.1925L18.7887 23.5314L20.3749 21.3342C21.3554 19.9739 21.2681 18.1309 19.8154 17.0683L16.6531 14.7634C16.2784 14.4862 16.2373 14.1012 16.4427 13.6751L15.9961 13.3568ZM18.7065 3.06934L16.0782 6.70897C14.8462 8.41328 15.2928 11.324 16.9766 12.5663L21.2989 15.7387C22.1767 16.3804 22.2897 18.0231 21.6531 18.8599L22.0176 19.1371L25.0001 14.9431C26.34 13.0591 26.263 10.2716 24.1583 8.74695L19.533 5.38453C18.8862 4.91739 18.5628 4.11656 19.1018 3.35168L18.7065 3.06934Z" fill="#015A75"/>
</svg>
