<svg width="25" height="25" viewBox="0 0 25 25" fill="none" xmlns="http://www.w3.org/2000/svg">
<g clip-path="url(#clip0_449_9630)">
<path d="M23.6131 10.4136L13.8237 10.4131C13.3914 10.4131 13.041 10.7634 13.041 11.1957V14.323C13.041 14.7552 13.3914 15.1056 13.8236 15.1056H19.3364C18.7328 16.6722 17.6061 17.9842 16.1686 18.8178L18.5192 22.887C22.29 20.7062 24.5192 16.8799 24.5192 12.5965C24.5192 11.9866 24.4743 11.5506 24.3844 11.0597C24.316 10.6867 23.9922 10.4136 23.6131 10.4136Z" fill="#167EE6"/>
<path d="M12.5198 19.8042C9.82195 19.8042 7.46677 18.3302 6.20184 16.1489L2.13281 18.4943C4.20352 22.0831 8.08261 24.4998 12.5198 24.4998C14.6965 24.4998 16.7505 23.9138 18.5198 22.8924V22.8868L16.1692 18.8176C15.0939 19.4412 13.8497 19.8042 12.5198 19.8042Z" fill="#12B347"/>
<path d="M18.5195 22.8926V22.887L16.1689 18.8178C15.0937 19.4413 13.8495 19.8043 12.5195 19.8043V24.5C14.6963 24.5 16.7503 23.9139 18.5195 22.8926Z" fill="#0F993E"/>
<path d="M5.21519 12.5C5.21519 11.1702 5.57809 9.92609 6.20158 8.85092L2.13255 6.50558C1.10556 8.26934 0.519531 10.3177 0.519531 12.5C0.519531 14.6823 1.10556 16.7307 2.13255 18.4944L6.20158 16.1491C5.57809 15.0739 5.21519 13.8298 5.21519 12.5Z" fill="#FFD500"/>
<path d="M12.5198 5.19566C14.2791 5.19566 15.895 5.82078 17.1572 6.86061C17.4686 7.11711 17.9212 7.09859 18.2064 6.81336L20.4222 4.59758C20.7458 4.27395 20.7228 3.74422 20.3771 3.44431C18.2623 1.60967 15.5107 0.5 12.5198 0.5C8.08261 0.5 4.20352 2.91673 2.13281 6.50558L6.20184 8.85092C7.46677 6.66969 9.82195 5.19566 12.5198 5.19566Z" fill="#FF4B26"/>
<path d="M17.157 6.86061C17.4684 7.11711 17.921 7.09859 18.2062 6.81336L20.422 4.59758C20.7455 4.27395 20.7225 3.74422 20.3768 3.44431C18.262 1.60963 15.5105 0.5 12.5195 0.5V5.19566C14.2787 5.19566 15.8948 5.82078 17.157 6.86061Z" fill="#D93F21"/>
</g>
<defs>
<clipPath id="clip0_449_9630">
<rect width="24" height="24" fill="white" transform="translate(0.519531 0.5)"/>
</clipPath>
</defs>
</svg>
